<?xml version="1.0" encoding="UTF-8"?>
<svg id="Layer_1" data-name="Layer 1" xmlns="http://www.w3.org/2000/svg" viewBox="0 0 626.26 163.2">
  <defs>
    <style>
      .cls-1 {
        fill: #5c068c;
      }
    </style>
  </defs>
  <g>
    <g>
      <path class="cls-1" d="M135.28,113.69c.77.79,1.83,1.18,3.17,1.18s2.4-.39,3.17-1.17,1.15-1.87,1.15-3.27v-8.45h1.6v8.45c0,1.85-.52,3.3-1.57,4.35-1.04,1.05-2.49,1.57-4.36,1.57s-3.32-.52-4.38-1.57-1.59-2.5-1.59-4.35v-8.45h1.63v8.45c0,1.38.39,2.47,1.16,3.26,0,0,.02,0,.02,0Z"/>
      <path class="cls-1" d="M156.99,106.58c.72.74,1.08,1.76,1.08,3.06v6.6h-1.59v-6.19c0-.95-.27-1.69-.8-2.24-.54-.54-1.28-.82-2.23-.82-1.05.01-1.88.34-2.51.97-.63.63-.99,1.48-1.09,2.53v5.74h-1.58v-10.7h1.58v2.35c.74-1.59,2.12-2.39,4.15-2.42,1.28,0,2.28.37,3,1.11h-.01Z"/>
      <path class="cls-1" d="M163.22,101.67c.2.21.3.47.3.79s-.1.57-.3.77-.45.3-.74.3-.54-.1-.74-.3-.29-.46-.29-.77.1-.57.29-.78.44-.32.74-.32.55.1.74.31ZM161.71,105.53h1.56v10.7h-1.56v-10.7Z"/>
      <path class="cls-1" d="M165.38,105.53h1.69l3.42,9.09,3.4-9.09h1.61l-4.21,10.7h-1.65l-4.25-10.7h0Z"/>
      <path class="cls-1" d="M185.18,107.08c.86,1.08,1.25,2.54,1.16,4.39h-8.74c.13,1.06.55,1.91,1.26,2.54.71.64,1.58.95,2.63.95.65,0,1.26-.12,1.83-.36s1.07-.57,1.49-1l.88.91c-.52.57-1.15,1.01-1.88,1.31-.74.31-1.55.46-2.43.46-1.05,0-1.98-.23-2.78-.68-.81-.45-1.44-1.09-1.88-1.91-.45-.82-.67-1.76-.67-2.82s.22-1.98.67-2.8,1.07-1.46,1.88-1.92,1.73-.69,2.76-.69c1.7,0,2.97.54,3.84,1.61h-.02ZM184.93,110.21c-.05-1.05-.4-1.88-1.05-2.49s-1.49-.92-2.53-.92-1.89.31-2.57.92-1.07,1.45-1.18,2.49h7.33Z"/>
      <path class="cls-1" d="M192.27,106.11c.65-.41,1.43-.63,2.34-.64v1.54c-1.11-.01-2.01.3-2.68.93s-1.06,1.5-1.16,2.6v5.69h-1.58v-10.7h1.58v2.37c.36-.78.86-1.38,1.51-1.79h0Z"/>
      <path class="cls-1" d="M201.09,107.01c-.51-.15-1.02-.22-1.51-.22-.64,0-1.15.12-1.54.35s-.58.6-.58,1.09c0,.34.11.62.33.83s.49.39.81.52.77.28,1.34.45c.75.23,1.36.46,1.82.68s.86.53,1.19.94c.32.41.49.94.49,1.61,0,.99-.38,1.75-1.13,2.26s-1.68.77-2.8.77c-.77,0-1.53-.13-2.26-.4-.73-.26-1.35-.63-1.85-1.1l.62-1.16c.45.42,1,.75,1.64.99s1.28.37,1.92.37c.68,0,1.23-.14,1.65-.41.43-.27.64-.67.64-1.2s-.21-.9-.63-1.16c-.42-.25-1.06-.5-1.91-.75-.72-.22-1.31-.43-1.75-.64s-.83-.51-1.15-.9-.48-.91-.48-1.56c0-.96.35-1.69,1.06-2.18.71-.49,1.6-.74,2.67-.74.62,0,1.23.09,1.83.26s1.13.41,1.59.71l-.61,1.22c-.43-.27-.89-.48-1.41-.63h.01Z"/>
      <path class="cls-1" d="M207.67,101.67c.2.21.3.47.3.79s-.1.57-.3.77-.45.3-.74.3-.54-.1-.74-.3-.29-.46-.29-.77.1-.57.29-.78.44-.32.74-.32.55.1.74.31ZM206.16,105.53h1.56v10.7h-1.56v-10.7Z"/>
      <path class="cls-1" d="M221.53,101.13v15.1h-1.59v-2.29c-.4.76-.96,1.35-1.68,1.76-.71.41-1.54.61-2.5.61-1.01,0-1.9-.23-2.69-.69-.79-.46-1.4-1.1-1.83-1.93-.43-.83-.65-1.77-.65-2.83s.22-2,.65-2.82,1.04-1.45,1.82-1.91c.78-.45,1.67-.68,2.67-.68s1.79.21,2.51.62,1.29,1,1.68,1.78v-6.72s1.61,0,1.61,0ZM218.07,114.43c.58-.34,1.04-.83,1.37-1.44s.5-1.32.5-2.09-.17-1.47-.5-2.1c-.33-.62-.79-1.11-1.37-1.45-.58-.35-1.25-.52-2-.52s-1.42.17-2.01.52c-.59.34-1.05.83-1.38,1.46s-.5,1.32-.5,2.09.17,1.47.5,2.09.79,1.1,1.38,1.44c.59.35,1.26.52,2.01.52s1.41-.17,2-.52Z"/>
      <path class="cls-1" d="M232.24,116.23v-1.67c-.85,1.15-2.16,1.73-3.93,1.73-.72,0-1.36-.14-1.91-.43s-.98-.67-1.28-1.16c-.3-.49-.45-1.04-.45-1.64,0-.93.35-1.68,1.06-2.23.71-.55,1.69-.84,2.96-.85h3.52v-.67c0-.8-.24-1.42-.73-1.86-.49-.44-1.2-.66-2.14-.66-1.1,0-2.23.41-3.4,1.24l-.67-1.12c.76-.5,1.46-.87,2.11-1.1.64-.23,1.4-.34,2.27-.34,1.32,0,2.33.32,3.05.97.71.65,1.07,1.55,1.09,2.7l.02,7.08h-1.57ZM230.95,114.33c.64-.43,1.07-1.02,1.27-1.78v-1.3h-3.34c-1.82,0-2.72.58-2.72,1.75,0,.6.22,1.07.67,1.44s1.04.54,1.79.54c.91,0,1.68-.21,2.33-.64h0Z"/>
      <path class="cls-1" d="M247.28,101.13v15.1h-1.59v-2.29c-.4.76-.96,1.35-1.68,1.76-.71.41-1.54.61-2.5.61-1.01,0-1.9-.23-2.69-.69-.79-.46-1.4-1.1-1.83-1.93-.43-.83-.65-1.77-.65-2.83s.22-2,.65-2.82,1.04-1.45,1.82-1.91c.78-.45,1.67-.68,2.67-.68s1.79.21,2.51.62,1.29,1,1.68,1.78v-6.72s1.61,0,1.61,0ZM243.82,114.43c.58-.34,1.04-.83,1.37-1.44s.5-1.32.5-2.09-.17-1.47-.5-2.1c-.33-.62-.79-1.11-1.37-1.45-.58-.35-1.25-.52-2-.52s-1.42.17-2.01.52c-.59.34-1.05.83-1.38,1.46s-.5,1.32-.5,2.09.17,1.47.5,2.09.79,1.1,1.38,1.44c.59.35,1.26.52,2.01.52s1.41-.17,2-.52Z"/>
      <path class="cls-1" d="M267.4,101.13v15.1h-1.59v-2.29c-.4.76-.96,1.35-1.67,1.76-.71.41-1.55.61-2.5.61-1.01,0-1.9-.23-2.69-.69s-1.39-1.1-1.83-1.93c-.43-.83-.65-1.77-.65-2.83s.22-2,.65-2.82,1.04-1.45,1.82-1.91c.78-.45,1.67-.68,2.67-.68s1.79.21,2.51.62,1.29,1,1.68,1.78v-6.72h1.6,0ZM263.94,114.43c.58-.34,1.04-.83,1.37-1.44s.5-1.32.5-2.09-.17-1.47-.5-2.1c-.33-.62-.79-1.11-1.37-1.45-.58-.35-1.25-.52-2-.52s-1.42.17-2.01.52c-.59.34-1.05.83-1.38,1.46s-.5,1.32-.5,2.09.17,1.47.5,2.09.79,1.1,1.38,1.44c.59.35,1.26.52,2.01.52s1.41-.17,2-.52Z"/>
      <path class="cls-1" d="M279.53,107.08c.86,1.08,1.25,2.54,1.16,4.39h-8.74c.13,1.06.55,1.91,1.26,2.54.7.64,1.58.95,2.63.95.65,0,1.26-.12,1.83-.36.57-.24,1.07-.57,1.49-1l.87.91c-.52.57-1.14,1.01-1.88,1.31-.74.31-1.55.46-2.43.46-1.05,0-1.97-.23-2.78-.68s-1.44-1.09-1.88-1.91c-.45-.82-.67-1.76-.67-2.82s.22-1.98.67-2.8,1.07-1.46,1.88-1.92,1.73-.69,2.76-.69c1.7,0,2.97.54,3.84,1.61h-.01ZM279.27,110.21c-.05-1.05-.4-1.88-1.05-2.49-.65-.62-1.49-.92-2.53-.92s-1.89.31-2.57.92c-.68.62-1.07,1.45-1.18,2.49h7.33Z"/>
      <path class="cls-1" d="M289.95,101.98h1.63v12.74h6.25v1.51h-7.88v-14.25Z"/>
      <path class="cls-1" d="M306.99,116.23v-1.67c-.85,1.15-2.16,1.73-3.92,1.73-.72,0-1.36-.14-1.91-.43-.55-.29-.98-.67-1.28-1.16-.3-.49-.45-1.04-.45-1.64,0-.93.35-1.68,1.06-2.23s1.69-.84,2.96-.85h3.52v-.67c0-.8-.24-1.42-.73-1.86-.49-.44-1.2-.66-2.14-.66-1.1,0-2.23.41-3.4,1.24l-.67-1.12c.76-.5,1.46-.87,2.11-1.1.64-.23,1.4-.34,2.27-.34,1.32,0,2.33.32,3.05.97.71.65,1.07,1.55,1.09,2.7l.02,7.08h-1.58,0ZM305.7,114.33c.64-.43,1.07-1.02,1.27-1.78v-1.3h-3.34c-1.82,0-2.72.58-2.72,1.75,0,.6.22,1.07.67,1.44s1.05.54,1.79.54c.91,0,1.68-.21,2.32-.64h0Z"/>
      <path class="cls-1" d="M318.6,101.98h1.63v12.74h6.25v1.51h-7.88v-14.25Z"/>
      <path class="cls-1" d="M335.63,116.23v-1.67c-.85,1.15-2.16,1.73-3.92,1.73-.72,0-1.36-.14-1.91-.43-.55-.29-.98-.67-1.28-1.16-.3-.49-.45-1.04-.45-1.64,0-.93.35-1.68,1.06-2.23s1.69-.84,2.96-.85h3.52v-.67c0-.8-.24-1.42-.73-1.86-.49-.44-1.2-.66-2.14-.66-1.1,0-2.23.41-3.4,1.24l-.67-1.12c.76-.5,1.46-.87,2.11-1.1.64-.23,1.4-.34,2.27-.34,1.32,0,2.33.32,3.05.97.71.65,1.07,1.55,1.09,2.7l.02,7.08h-1.58,0ZM334.34,114.33c.64-.43,1.07-1.02,1.27-1.78v-1.3h-3.34c-1.82,0-2.72.58-2.72,1.75,0,.6.22,1.07.67,1.44s1.05.54,1.79.54c.91,0,1.68-.21,2.32-.64h0Z"/>
      <path class="cls-1" d="M350.16,105.53v9.58c0,1.03-.23,1.94-.68,2.71-.45.77-1.08,1.36-1.89,1.78s-1.75.62-2.83.62c-1.56,0-3.03-.52-4.39-1.56l.73-1.16c.54.46,1.11.81,1.69,1.03.58.22,1.22.33,1.92.33,1.18,0,2.12-.33,2.82-1s1.05-1.57,1.05-2.71v-1.62c-.38.72-.91,1.28-1.58,1.66-.68.38-1.47.58-2.36.58-.95,0-1.79-.22-2.53-.66s-1.32-1.05-1.73-1.83-.62-1.67-.62-2.67.21-1.9.62-2.67.99-1.38,1.73-1.81,1.59-.65,2.56-.65c.89,0,1.67.19,2.33.58.66.38,1.19.94,1.59,1.66v-2.18h1.59-.02ZM346.8,113.97c.56-.32.99-.78,1.3-1.37.31-.59.47-1.24.47-1.97s-.16-1.39-.47-1.98-.74-1.04-1.3-1.37-1.19-.5-1.9-.5-1.33.16-1.89.49c-.56.32-.99.78-1.31,1.37-.32.59-.48,1.25-.48,1.99s.16,1.39.48,1.98c.32.58.76,1.04,1.31,1.36.56.32,1.19.49,1.89.49s1.34-.16,1.9-.49Z"/>
      <path class="cls-1" d="M363.15,105.53v10.7h-1.58v-2.43c-.69,1.63-2.05,2.46-4.07,2.48-1.24,0-2.22-.37-2.94-1.12-.71-.75-1.07-1.76-1.07-3.06v-6.59h1.58v6.18c0,.95.27,1.69.8,2.24.53.55,1.26.82,2.18.82,1.1-.01,1.96-.39,2.59-1.12s.94-1.69.94-2.87v-5.25h1.58v.02h0Z"/>
      <path class="cls-1" d="M375.85,106.58c.72.74,1.08,1.76,1.08,3.06v6.6h-1.59v-6.19c0-.95-.27-1.69-.8-2.24-.54-.54-1.28-.82-2.23-.82-1.05.01-1.88.34-2.51.97-.63.63-.99,1.48-1.09,2.53v5.74h-1.58v-10.7h1.58v2.35c.73-1.59,2.12-2.39,4.15-2.42,1.28,0,2.28.37,3,1.11h0Z"/>
      <path class="cls-1" d="M387.22,116.23v-1.67c-.85,1.15-2.16,1.73-3.92,1.73-.72,0-1.36-.14-1.91-.43-.55-.29-.98-.67-1.28-1.16-.3-.49-.45-1.04-.45-1.64,0-.93.35-1.68,1.06-2.23s1.69-.84,2.96-.85h3.52v-.67c0-.8-.24-1.42-.73-1.86-.49-.44-1.2-.66-2.14-.66-1.1,0-2.23.41-3.4,1.24l-.67-1.12c.76-.5,1.46-.87,2.11-1.1.64-.23,1.4-.34,2.27-.34,1.32,0,2.33.32,3.05.97.71.65,1.07,1.55,1.09,2.7l.02,7.08h-1.58,0ZM385.93,114.33c.64-.43,1.07-1.02,1.27-1.78v-1.3h-3.34c-1.82,0-2.72.58-2.72,1.75,0,.6.22,1.07.67,1.44s1.05.54,1.79.54c.91,0,1.68-.21,2.32-.64h0Z"/>
    </g>
    <polygon class="cls-1" points="103.67 73.48 103.67 42.98 103.03 42.98 89.06 56.39 89.06 73.48 75.31 73.48 75.31 42.98 74.68 42.98 60.7 56.39 60.7 87.73 72.32 87.73 75.31 87.73 89.06 74.55 89.06 87.73 100.67 87.73 103.67 87.73 117.94 74.05 117.94 73.48 103.67 73.48"/>
  </g>
  <g>
    <path class="cls-1" d="M141.84,48.96c-.66-.36-1.31-.54-1.95-.54-.75,0-1.42.19-2.02.56-.61.37-1.08.88-1.44,1.53-.35.65-.53,1.37-.53,2.17s.18,1.52.53,2.17c.35.65.83,1.16,1.44,1.53.61.37,1.28.56,2.02.56.6,0,1.23-.15,1.89-.46.66-.31,1.25-.73,1.77-1.26l2.25,2.41c-.8.84-1.75,1.51-2.85,2.01s-2.19.75-3.26.75c-1.46,0-2.77-.34-3.95-1.01-1.18-.67-2.1-1.59-2.77-2.75-.67-1.16-1.01-2.46-1.01-3.91s.34-2.72,1.03-3.87c.69-1.15,1.63-2.05,2.82-2.71s2.54-.98,4.02-.98c1.09,0,2.17.23,3.23.68,1.06.46,1.97,1.08,2.71,1.86l-2.23,2.69c-.48-.6-1.05-1.08-1.71-1.44Z"/>
    <path class="cls-1" d="M156.08,49.7c.87.72,1.31,1.73,1.32,3.03v7.39h-3.67v-1.28c-.76.96-1.9,1.45-3.42,1.45-1.2,0-2.15-.32-2.85-.97s-1.04-1.51-1.04-2.57.37-1.92,1.12-2.52c.75-.6,1.82-.91,3.23-.92h2.96v-.12c0-.55-.19-.97-.56-1.26-.37-.29-.91-.44-1.6-.44-.48,0-1.02.08-1.61.23-.59.15-1.19.38-1.79.67l-1.03-2.51c.92-.42,1.81-.73,2.66-.93s1.73-.31,2.64-.31c1.57,0,2.78.36,3.65,1.08ZM152.94,57.34c.42-.27.69-.63.79-1.07v-.98h-2.23c-1.05,0-1.58.39-1.58,1.18,0,.39.14.7.41.93s.65.35,1.13.35c.56,0,1.05-.14,1.47-.41ZM152.81,43.95l3.09,1.18-3.05,2.41-2.56-.21,2.52-3.38Z"/>
    <path class="cls-1" d="M167.31,59.54c-.42.24-.9.42-1.45.55s-1.1.19-1.66.19c-1.12,0-2.03-.32-2.72-.96-.69-.64-1.04-1.53-1.04-2.67v-4.87h-1.57v-2.48h1.57v-3.15h3.72v3.15h2.94v2.48h-2.94v4.29c0,.8.33,1.2.98,1.19.4,0,.89-.12,1.46-.37l.71,2.65Z"/>
    <path class="cls-1" d="M178.28,50.27c1,1.09,1.49,2.59,1.49,4.5,0,.29,0,.52-.02.67h-7.9c.18.64.5,1.14.94,1.48s.99.52,1.64.52c.49,0,.96-.1,1.42-.29.45-.2.87-.48,1.25-.87l1.95,1.96c-.59.66-1.3,1.16-2.13,1.5s-1.77.51-2.82.51c-1.22,0-2.28-.24-3.19-.71-.91-.47-1.61-1.15-2.09-2.01-.48-.87-.72-1.88-.72-3.02s.25-2.19.74-3.08,1.19-1.57,2.08-2.06c.9-.48,1.93-.72,3.11-.72,1.85,0,3.27.55,4.26,1.64ZM176.15,53.44c0-.66-.19-1.18-.58-1.58-.39-.4-.89-.6-1.52-.6-.59,0-1.08.19-1.48.58-.4.39-.66.92-.78,1.6h4.37Z"/>
    <path class="cls-1" d="M193.14,44.53v15.59h-3.73v-1.47c-.39.53-.87.94-1.44,1.2-.57.27-1.21.41-1.93.41-1.05,0-1.98-.24-2.77-.73-.8-.49-1.42-1.18-1.86-2.07-.44-.89-.66-1.91-.66-3.08s.22-2.16.65-3.02,1.04-1.54,1.83-2.01,1.7-.71,2.73-.71c.72,0,1.38.14,1.96.42.58.28,1.08.68,1.48,1.19v-5.71h3.73ZM188.73,56.54c.45-.53.67-1.21.67-2.05s-.22-1.54-.67-2.06c-.45-.52-1.04-.77-1.77-.77s-1.31.26-1.77.78c-.45.52-.68,1.2-.68,2.05s.23,1.52.68,2.05,1.04.79,1.77.79,1.32-.26,1.77-.79Z"/>
    <path class="cls-1" d="M201.35,49.14c.62-.35,1.33-.52,2.13-.52v3.42c-.12-.01-.31-.02-.56-.03-.88,0-1.6.21-2.14.62s-.86.98-.94,1.7v5.79h-3.74v-11.36h3.74v1.89c.39-.66.9-1.16,1.52-1.51Z"/>
    <path class="cls-1" d="M213.57,49.7c.87.72,1.31,1.73,1.32,3.03v7.39h-3.67v-1.28c-.76.96-1.9,1.45-3.42,1.45-1.2,0-2.15-.32-2.85-.97s-1.04-1.51-1.04-2.57.37-1.92,1.12-2.52c.75-.6,1.82-.91,3.23-.92h2.96v-.12c0-.55-.19-.97-.56-1.26-.37-.29-.91-.44-1.6-.44-.48,0-1.02.08-1.61.23-.59.15-1.19.38-1.79.67l-1.03-2.51c.92-.42,1.81-.73,2.66-.93s1.73-.31,2.64-.31c1.57,0,2.78.36,3.65,1.08ZM210.43,57.34c.42-.27.69-.63.79-1.07v-.98h-2.23c-1.05,0-1.58.39-1.58,1.18,0,.39.14.7.41.93s.65.35,1.13.35c.56,0,1.05-.14,1.47-.41Z"/>
    <path class="cls-1" d="M235.17,44.53v15.59h-3.73v-1.47c-.39.53-.87.94-1.44,1.2-.57.27-1.21.41-1.93.41-1.05,0-1.98-.24-2.77-.73-.8-.49-1.42-1.18-1.86-2.07-.44-.89-.66-1.91-.66-3.08s.22-2.16.65-3.02,1.04-1.54,1.83-2.01,1.7-.71,2.73-.71c.72,0,1.38.14,1.96.42.58.28,1.08.68,1.48,1.19v-5.71h3.73ZM230.76,56.54c.45-.53.67-1.21.67-2.05s-.22-1.54-.67-2.06c-.45-.52-1.04-.77-1.77-.77s-1.31.26-1.77.78c-.45.52-.68,1.2-.68,2.05s.23,1.52.68,2.05,1.04.79,1.77.79,1.32-.26,1.77-.79Z"/>
    <path class="cls-1" d="M247.38,50.27c1,1.09,1.49,2.59,1.49,4.5,0,.29,0,.52-.02.67h-7.9c.18.64.5,1.14.94,1.48s.99.52,1.64.52c.49,0,.96-.1,1.42-.29.45-.2.87-.48,1.25-.87l1.95,1.96c-.59.66-1.3,1.16-2.13,1.5s-1.77.51-2.82.51c-1.22,0-2.28-.24-3.19-.71-.91-.47-1.61-1.15-2.09-2.01-.48-.87-.72-1.88-.72-3.02s.25-2.19.74-3.08,1.19-1.57,2.08-2.06c.9-.48,1.93-.72,3.11-.72,1.85,0,3.27.55,4.26,1.64ZM245.25,53.44c0-.66-.19-1.18-.58-1.58-.39-.4-.89-.6-1.52-.6-.59,0-1.08.19-1.48.58-.4.39-.66.92-.78,1.6h4.37Z"/>
    <path class="cls-1" d="M257.07,45.4h3.84v14.72h-3.84v-14.72Z"/>
    <path class="cls-1" d="M274.26,49.79c.75.78,1.12,1.84,1.12,3.17v7.16h-3.72v-6.09c0-.64-.17-1.15-.52-1.52s-.82-.56-1.41-.56c-.62.01-1.12.22-1.52.61-.4.39-.63.91-.7,1.55v6.01h-3.74v-11.36h3.74v1.85c.4-.66.92-1.15,1.56-1.49.64-.33,1.37-.5,2.19-.5,1.25,0,2.25.39,3,1.17Z"/>
    <path class="cls-1" d="M276.25,48.76h3.84l2.37,7.9,2.39-7.9h3.74l-4.27,11.36h-3.85l-4.23-11.36Z"/>
    <path class="cls-1" d="M298.75,50.27c1,1.09,1.49,2.59,1.49,4.5,0,.29,0,.52-.02.67h-7.9c.18.64.5,1.14.94,1.48s.99.52,1.64.52c.49,0,.96-.1,1.42-.29.45-.2.87-.48,1.25-.87l1.95,1.96c-.59.66-1.3,1.16-2.13,1.5s-1.77.51-2.82.51c-1.22,0-2.28-.24-3.19-.71-.91-.47-1.61-1.15-2.09-2.01-.48-.87-.72-1.88-.72-3.02s.25-2.19.74-3.08,1.19-1.57,2.08-2.06c.9-.48,1.93-.72,3.11-.72,1.85,0,3.27.55,4.26,1.64ZM296.61,53.44c0-.66-.19-1.18-.58-1.58-.39-.4-.89-.6-1.52-.6-.59,0-1.08.19-1.48.58-.4.39-.66.92-.78,1.6h4.37Z"/>
    <path class="cls-1" d="M306.1,51.2c-.32,0-.58.06-.77.17-.19.12-.29.29-.29.53,0,.25.15.46.46.61.31.15.8.32,1.47.51.81.24,1.49.47,2.03.7.54.23,1,.58,1.39,1.05.39.47.58,1.08.58,1.84,0,1.15-.44,2.05-1.33,2.7s-2.05.97-3.48.97c-.96,0-1.89-.14-2.77-.41-.88-.27-1.67-.67-2.35-1.2l1.17-2.42c.64.45,1.32.8,2.03,1.04.71.24,1.38.36,2.01.36.36,0,.65-.06.87-.17.21-.12.32-.29.32-.51,0-.28-.16-.5-.47-.65-.31-.15-.81-.32-1.48-.51-.8-.24-1.46-.47-1.97-.7-.52-.23-.97-.57-1.35-1.04-.39-.46-.58-1.06-.58-1.81,0-1.15.43-2.05,1.3-2.7s1.99-.97,3.36-.97c.83,0,1.64.11,2.45.33.8.22,1.56.55,2.27.99l-1.25,2.43c-1.48-.77-2.68-1.15-3.62-1.15Z"/>
    <path class="cls-1" d="M320.38,59.54c-.42.24-.9.42-1.45.55s-1.1.19-1.66.19c-1.12,0-2.03-.32-2.72-.96-.69-.64-1.04-1.53-1.04-2.67v-4.87h-1.57v-2.48h1.57v-3.15h3.72v3.15h2.94v2.48h-2.94v4.29c0,.8.33,1.2.98,1.19.4,0,.89-.12,1.46-.37l.71,2.65Z"/>
    <path class="cls-1" d="M325.44,44.09c.37.37.55.85.55,1.44s-.18,1.05-.55,1.43-.84.56-1.42.56-1.05-.19-1.42-.56c-.37-.38-.56-.85-.56-1.43s.19-1.07.56-1.44.85-.56,1.42-.56,1.05.19,1.42.56ZM322.15,48.76h3.72v11.36h-3.72v-11.36Z"/>
    <path class="cls-1" d="M339.6,48.76v10.36c0,1.05-.26,1.97-.77,2.76-.52.79-1.24,1.4-2.17,1.83-.93.43-2.01.64-3.22.64-.95,0-1.87-.13-2.75-.4s-1.66-.63-2.34-1.08l1.3-2.58c.52.35,1.08.62,1.68.82s1.21.3,1.83.3c.84,0,1.51-.2,2-.59.49-.39.74-.92.74-1.59v-1.22c-.76.99-1.84,1.49-3.24,1.5-.94,0-1.77-.23-2.51-.69-.74-.46-1.31-1.1-1.72-1.93-.41-.83-.62-1.79-.62-2.87s.2-2,.6-2.81c.4-.81.96-1.44,1.69-1.89.73-.45,1.55-.67,2.48-.67.7,0,1.33.13,1.9.39s1.04.63,1.42,1.12v-1.38h3.71ZM335.26,56.02c.42-.49.63-1.13.63-1.91s-.21-1.44-.63-1.93c-.42-.49-.98-.73-1.67-.73s-1.24.25-1.67.75c-.43.5-.64,1.14-.64,1.92s.21,1.42.64,1.91c.43.49.98.73,1.67.73s1.25-.24,1.67-.73Z"/>
    <path class="cls-1" d="M351.11,49.7c.87.72,1.31,1.73,1.32,3.03v7.39h-3.67v-1.28c-.76.96-1.9,1.45-3.42,1.45-1.2,0-2.15-.32-2.85-.97-.69-.65-1.04-1.51-1.04-2.57s.38-1.92,1.12-2.52c.75-.6,1.82-.91,3.22-.92h2.96v-.12c0-.55-.19-.97-.56-1.26-.37-.29-.91-.44-1.61-.44-.48,0-1.01.08-1.61.23-.59.15-1.19.38-1.79.67l-1.03-2.51c.92-.42,1.81-.73,2.66-.93s1.73-.31,2.63-.31c1.57,0,2.78.36,3.65,1.08ZM347.97,57.34c.42-.27.69-.63.79-1.07v-.98h-2.23c-1.05,0-1.58.39-1.58,1.18,0,.39.14.7.41.93s.65.35,1.13.35c.56,0,1.05-.14,1.47-.41Z"/>
    <path class="cls-1" d="M360.05,51.72c-.67,0-1.21.25-1.63.76-.42.51-.63,1.17-.63,1.98s.21,1.49.63,1.99c.42.5.96.75,1.63.75,1.04,0,1.78-.43,2.23-1.28l2.75,1.58c-.45.87-1.12,1.54-2.01,2.01-.89.48-1.94.71-3.15.71s-2.18-.24-3.07-.71c-.88-.47-1.56-1.15-2.04-2.01-.48-.87-.72-1.88-.72-3.02s.25-2.19.74-3.08,1.18-1.57,2.07-2.06c.89-.48,1.91-.72,3.08-.72s2.14.23,3.03.7c.88.47,1.57,1.13,2.05,1.98l-2.71,1.57c-.53-.78-1.28-1.17-2.23-1.17Z"/>
    <path class="cls-1" d="M370.03,44.09c.37.37.55.85.55,1.44s-.18,1.05-.55,1.43-.84.56-1.42.56-1.05-.19-1.42-.56c-.37-.38-.56-.85-.56-1.43s.19-1.07.56-1.44.85-.56,1.42-.56,1.05.19,1.42.56ZM366.74,48.76h3.72v11.36h-3.72v-11.36Z"/>
    <path class="cls-1" d="M381.84,49.36c.94.48,1.66,1.16,2.18,2.04s.78,1.89.78,3.04-.26,2.18-.78,3.06-1.25,1.55-2.18,2.04c-.94.48-2.02.72-3.26.72s-2.31-.24-3.25-.72c-.94-.48-1.66-1.16-2.17-2.04s-.77-1.89-.77-3.06.26-2.16.77-3.04,1.24-1.55,2.17-2.04c.94-.48,2.02-.72,3.25-.72s2.32.24,3.26.72ZM376.82,52.43c-.45.52-.67,1.19-.67,2.04s.22,1.54.67,2.06c.45.52,1.03.78,1.76.78s1.34-.26,1.79-.78c.45-.52.67-1.21.67-2.06s-.23-1.52-.68-2.04c-.45-.52-1.05-.77-1.78-.77s-1.31.26-1.76.77ZM379.21,43.95l3.09,1.18-3.04,2.41-2.56-.21,2.52-3.38Z"/>
    <path class="cls-1" d="M397.19,49.79c.75.78,1.12,1.84,1.12,3.17v7.16h-3.72v-6.09c0-.64-.17-1.15-.52-1.52s-.82-.56-1.4-.56c-.62.01-1.12.22-1.52.61-.4.39-.63.91-.7,1.55v6.01h-3.74v-11.36h3.74v1.85c.4-.66.92-1.15,1.56-1.49.64-.33,1.37-.5,2.19-.5,1.25,0,2.25.39,3,1.17Z"/>
    <path class="cls-1" d="M416.41,50.27c1,1.09,1.49,2.59,1.49,4.5,0,.29,0,.52-.02.67h-7.9c.18.64.5,1.14.94,1.48s.99.52,1.64.52c.49,0,.96-.1,1.42-.29.45-.2.87-.48,1.25-.87l1.95,1.96c-.59.66-1.3,1.16-2.13,1.5s-1.77.51-2.82.51c-1.22,0-2.28-.24-3.19-.71-.91-.47-1.61-1.15-2.09-2.01-.48-.87-.72-1.88-.72-3.02s.25-2.19.74-3.08,1.19-1.57,2.08-2.06c.9-.48,1.93-.72,3.11-.72,1.85,0,3.27.55,4.26,1.64ZM414.27,53.44c0-.66-.19-1.18-.58-1.58-.39-.4-.89-.6-1.52-.6-.59,0-1.08.19-1.48.58-.4.39-.66.92-.78,1.6h4.37Z"/>
    <path class="cls-1" d="M426.1,45.4h3.84v14.72h-3.84v-14.72Z"/>
    <path class="cls-1" d="M443.29,49.79c.75.78,1.12,1.84,1.12,3.17v7.16h-3.72v-6.09c0-.64-.17-1.15-.52-1.52s-.82-.56-1.41-.56c-.62.01-1.12.22-1.52.61-.4.39-.63.91-.7,1.55v6.01h-3.74v-11.36h3.74v1.85c.4-.66.92-1.15,1.56-1.49.64-.33,1.37-.5,2.19-.5,1.25,0,2.25.39,3,1.17Z"/>
    <path class="cls-1" d="M457.44,49.79c.75.78,1.12,1.84,1.12,3.17v7.16h-3.72v-6.09c0-.64-.17-1.15-.52-1.52s-.82-.56-1.41-.56c-.62.01-1.12.22-1.52.61-.4.39-.63.91-.7,1.55v6.01h-3.74v-11.36h3.74v1.85c.4-.66.92-1.15,1.56-1.49.64-.33,1.37-.5,2.19-.5,1.25,0,2.25.39,3,1.17Z"/>
    <path class="cls-1" d="M469.62,49.36c.94.48,1.66,1.16,2.18,2.04s.78,1.89.78,3.04-.26,2.18-.78,3.06-1.25,1.55-2.18,2.04c-.94.48-2.02.72-3.26.72s-2.31-.24-3.25-.72c-.94-.48-1.66-1.16-2.17-2.04s-.77-1.89-.77-3.06.26-2.16.77-3.04,1.24-1.55,2.17-2.04c.94-.48,2.02-.72,3.25-.72s2.32.24,3.26.72ZM464.6,52.43c-.45.52-.67,1.19-.67,2.04s.22,1.54.67,2.06c.45.52,1.03.78,1.76.78s1.34-.26,1.79-.78c.45-.52.67-1.21.67-2.06s-.23-1.52-.68-2.04c-.45-.52-1.05-.77-1.78-.77s-1.31.26-1.76.77Z"/>
    <path class="cls-1" d="M472.6,48.76h3.84l2.37,7.9,2.39-7.9h3.74l-4.27,11.36h-3.84l-4.24-11.36Z"/>
    <path class="cls-1" d="M494.65,49.7c.87.72,1.31,1.73,1.32,3.03v7.39h-3.67v-1.28c-.76.96-1.9,1.45-3.42,1.45-1.2,0-2.15-.32-2.85-.97-.69-.65-1.04-1.51-1.04-2.57s.38-1.92,1.12-2.52c.75-.6,1.82-.91,3.22-.92h2.96v-.12c0-.55-.19-.97-.56-1.26-.37-.29-.91-.44-1.6-.44-.48,0-1.02.08-1.61.23-.59.15-1.19.38-1.79.67l-1.03-2.51c.92-.42,1.81-.73,2.66-.93s1.73-.31,2.64-.31c1.56,0,2.78.36,3.65,1.08ZM491.51,57.34c.42-.27.69-.63.79-1.07v-.98h-2.23c-1.05,0-1.58.39-1.58,1.18,0,.39.14.7.41.93.27.23.65.35,1.13.35.56,0,1.05-.14,1.47-.41Z"/>
    <path class="cls-1" d="M503.59,51.72c-.67,0-1.21.25-1.63.76-.42.51-.63,1.17-.63,1.98s.21,1.49.63,1.99c.42.5.96.75,1.63.75,1.04,0,1.78-.43,2.23-1.28l2.75,1.58c-.45.87-1.12,1.54-2.01,2.01-.89.48-1.94.71-3.15.71s-2.18-.24-3.07-.71c-.88-.47-1.56-1.15-2.05-2.01-.48-.87-.72-1.88-.72-3.02s.25-2.19.74-3.08,1.18-1.57,2.07-2.06c.89-.48,1.91-.72,3.08-.72s2.14.23,3.02.7c.88.47,1.57,1.13,2.05,1.98l-2.71,1.57c-.53-.78-1.28-1.17-2.23-1.17Z"/>
    <path class="cls-1" d="M513.57,44.09c.37.37.55.85.55,1.44s-.18,1.05-.55,1.43-.84.56-1.42.56-1.05-.19-1.42-.56c-.37-.38-.56-.85-.56-1.43s.19-1.07.56-1.44.85-.56,1.42-.56,1.05.19,1.42.56ZM510.28,48.76h3.72v11.36h-3.72v-11.36Z"/>
    <path class="cls-1" d="M525.38,49.36c.94.48,1.66,1.16,2.18,2.04s.78,1.89.78,3.04-.26,2.18-.78,3.06-1.25,1.55-2.18,2.04c-.94.48-2.02.72-3.26.72s-2.31-.24-3.25-.72c-.94-.48-1.66-1.16-2.17-2.04s-.77-1.89-.77-3.06.26-2.16.77-3.04,1.24-1.55,2.17-2.04c.94-.48,2.02-.72,3.25-.72s2.32.24,3.26.72ZM520.36,52.43c-.45.52-.67,1.19-.67,2.04s.22,1.54.67,2.06c.45.52,1.03.78,1.76.78s1.34-.26,1.79-.78c.45-.52.67-1.21.67-2.06s-.23-1.52-.68-2.04c-.45-.52-1.05-.77-1.78-.77s-1.31.26-1.76.77ZM522.76,43.95l3.09,1.18-3.04,2.41-2.56-.21,2.52-3.38Z"/>
    <path class="cls-1" d="M540.74,49.79c.75.78,1.12,1.84,1.12,3.17v7.16h-3.72v-6.09c0-.64-.17-1.15-.52-1.52s-.82-.56-1.41-.56c-.62.01-1.12.22-1.52.61-.4.39-.63.91-.7,1.55v6.01h-3.74v-11.36h3.74v1.85c.4-.66.92-1.15,1.56-1.49.64-.33,1.37-.5,2.19-.5,1.25,0,2.25.39,3,1.17Z"/>
    <path class="cls-1" d="M559.95,50.27c1,1.09,1.49,2.59,1.49,4.5,0,.29,0,.52-.02.67h-7.9c.18.64.5,1.14.94,1.48s.99.52,1.64.52c.49,0,.96-.1,1.42-.29.45-.2.87-.48,1.25-.87l1.95,1.96c-.59.66-1.3,1.16-2.13,1.5s-1.77.51-2.82.51c-1.22,0-2.28-.24-3.19-.71-.91-.47-1.61-1.15-2.09-2.01-.48-.87-.72-1.88-.72-3.02s.25-2.19.74-3.08,1.19-1.57,2.08-2.06c.9-.48,1.93-.72,3.11-.72,1.85,0,3.27.55,4.26,1.64ZM557.82,53.44c0-.66-.19-1.18-.58-1.58-.39-.4-.89-.6-1.52-.6-.59,0-1.08.19-1.48.58-.4.39-.66.92-.78,1.6h4.37Z"/>
    <path class="cls-1" d="M573.84,49.79c.75.78,1.12,1.84,1.12,3.17v7.16h-3.72v-6.09c0-.64-.17-1.15-.52-1.52s-.82-.56-1.41-.56c-.62.01-1.12.22-1.52.61-.4.39-.63.91-.7,1.55v6.01h-3.74v-11.36h3.74v1.85c.4-.66.92-1.15,1.56-1.49.64-.33,1.37-.5,2.19-.5,1.25,0,2.25.39,3,1.17Z"/>
  </g>
  <g>
    <path class="cls-1" d="M142.63,76c1.18.62,2.1,1.48,2.76,2.59.66,1.11.99,2.39.99,3.83s-.33,2.72-1,3.84c-.67,1.12-1.6,1.99-2.81,2.6s-2.6.92-4.17.92h-6.19v-14.72h6.35c1.54,0,2.9.31,4.08.93ZM140.63,86.16c.57-.35,1.02-.85,1.34-1.49.32-.64.49-1.38.49-2.2s-.17-1.58-.52-2.23-.82-1.14-1.42-1.5-1.29-.53-2.05-.53h-2.42v8.48h2.6c.75,0,1.4-.18,1.97-.53Z"/>
    <path class="cls-1" d="M151.57,73.77c.37.37.55.85.55,1.44s-.18,1.05-.55,1.43-.84.56-1.42.56-1.05-.19-1.42-.56c-.37-.38-.56-.85-.56-1.43s.19-1.07.56-1.44.85-.56,1.42-.56,1.05.19,1.42.56ZM148.28,78.44h3.72v11.36h-3.72v-11.36Z"/>
    <path class="cls-1" d="M158.82,80.88c-.32,0-.58.06-.77.17-.19.12-.29.29-.29.53,0,.25.15.46.46.61.31.15.8.32,1.47.51.81.24,1.49.47,2.03.7.54.23,1,.58,1.39,1.05.39.47.58,1.08.58,1.84,0,1.15-.44,2.05-1.33,2.7s-2.05.97-3.48.97c-.96,0-1.89-.13-2.77-.41-.88-.27-1.66-.67-2.35-1.2l1.17-2.42c.64.45,1.32.8,2.03,1.04.71.24,1.38.36,2.01.36.36,0,.65-.06.87-.17.21-.12.32-.29.32-.51,0-.28-.16-.5-.47-.65-.31-.15-.81-.32-1.48-.51-.8-.24-1.46-.47-1.97-.7-.52-.23-.97-.57-1.35-1.04-.39-.46-.58-1.06-.58-1.81,0-1.15.43-2.05,1.3-2.7s1.99-.97,3.36-.97c.83,0,1.64.11,2.45.33.8.22,1.56.55,2.27.99l-1.25,2.43c-1.48-.77-2.68-1.15-3.62-1.15Z"/>
    <path class="cls-1" d="M170.81,81.4c-.67,0-1.22.25-1.64.76-.42.51-.63,1.17-.63,1.98s.21,1.49.63,1.99c.42.5.97.75,1.64.75,1.04,0,1.78-.43,2.23-1.28l2.75,1.58c-.45.87-1.12,1.54-2.01,2.01-.89.48-1.94.71-3.15.71s-2.18-.24-3.07-.71c-.88-.47-1.56-1.15-2.05-2.01-.48-.87-.72-1.88-.72-3.02s.25-2.19.74-3.08,1.18-1.57,2.07-2.06c.89-.48,1.91-.72,3.08-.72s2.14.23,3.02.7c.88.47,1.57,1.13,2.05,1.98l-2.71,1.57c-.53-.78-1.27-1.17-2.23-1.17Z"/>
    <path class="cls-1" d="M186.09,79.37c.87.72,1.31,1.73,1.32,3.03v7.39h-3.67v-1.28c-.76.96-1.9,1.45-3.42,1.45-1.2,0-2.15-.32-2.85-.97s-1.04-1.51-1.04-2.57.37-1.92,1.12-2.52c.75-.6,1.82-.91,3.23-.92h2.96v-.12c0-.55-.19-.97-.56-1.26-.37-.29-.91-.44-1.6-.44-.48,0-1.02.08-1.61.23-.59.15-1.19.38-1.79.67l-1.03-2.51c.92-.42,1.81-.73,2.66-.93s1.73-.31,2.64-.31c1.57,0,2.78.36,3.65,1.08ZM182.94,87.02c.42-.27.69-.63.79-1.07v-.98h-2.23c-1.05,0-1.58.39-1.58,1.18,0,.39.14.7.41.93s.65.35,1.13.35c.56,0,1.05-.14,1.47-.41Z"/>
    <path class="cls-1" d="M199.88,79.04c.8.48,1.42,1.17,1.86,2.06.44.89.66,1.91.66,3.08s-.21,2.16-.64,3.02c-.43.87-1.04,1.54-1.83,2.01-.79.48-1.71.71-2.74.71-.71,0-1.36-.14-1.94-.41-.58-.27-1.08-.67-1.48-1.18v5.54h-3.73v-15.43h3.73v1.47c.83-1.07,1.94-1.6,3.34-1.59,1.05,0,1.97.24,2.77.72ZM197.96,86.12c.45-.52.68-1.19.68-2.04s-.23-1.52-.68-2.05-1.04-.79-1.77-.79-1.29.26-1.74.79-.68,1.21-.68,2.05.22,1.52.67,2.04c.45.52,1.03.77,1.75.77s1.31-.26,1.77-.77Z"/>
    <path class="cls-1" d="M213.1,79.37c.87.72,1.31,1.73,1.32,3.03v7.39h-3.67v-1.28c-.76.96-1.9,1.45-3.42,1.45-1.2,0-2.15-.32-2.85-.97s-1.04-1.51-1.04-2.57.37-1.92,1.12-2.52c.75-.6,1.82-.91,3.23-.92h2.96v-.12c0-.55-.19-.97-.56-1.26-.37-.29-.91-.44-1.6-.44-.48,0-1.02.08-1.61.23-.59.15-1.19.38-1.79.67l-1.03-2.51c.92-.42,1.81-.73,2.66-.93s1.73-.31,2.64-.31c1.57,0,2.78.36,3.65,1.08ZM209.95,87.02c.42-.27.69-.63.79-1.07v-.98h-2.23c-1.05,0-1.58.39-1.58,1.18,0,.39.14.7.41.93s.65.35,1.13.35c.56,0,1.05-.14,1.47-.41Z"/>
    <path class="cls-1" d="M222.04,81.4c-.67,0-1.22.25-1.64.76-.42.51-.63,1.17-.63,1.98s.21,1.49.63,1.99c.42.5.97.75,1.64.75,1.04,0,1.78-.43,2.23-1.28l2.75,1.58c-.45.87-1.12,1.54-2.01,2.01-.89.48-1.94.71-3.15.71s-2.18-.24-3.07-.71c-.88-.47-1.56-1.15-2.05-2.01-.48-.87-.72-1.88-.72-3.02s.25-2.19.74-3.08,1.18-1.57,2.07-2.06c.89-.48,1.91-.72,3.08-.72s2.14.23,3.02.7c.88.47,1.57,1.13,2.05,1.98l-2.71,1.57c-.53-.78-1.27-1.17-2.23-1.17Z"/>
    <path class="cls-1" d="M232.02,73.77c.37.37.55.85.55,1.44s-.18,1.05-.55,1.43-.84.56-1.42.56-1.05-.19-1.42-.56c-.37-.38-.56-.85-.56-1.43s.19-1.07.56-1.44.85-.56,1.42-.56,1.05.19,1.42.56ZM228.72,78.44h3.72v11.36h-3.72v-11.36Z"/>
    <path class="cls-1" d="M246.76,74.21v15.59h-3.73v-1.47c-.39.53-.87.93-1.44,1.2-.57.27-1.21.41-1.93.41-1.05,0-1.98-.24-2.77-.73-.8-.49-1.42-1.18-1.86-2.07-.44-.89-.66-1.91-.66-3.08s.22-2.16.65-3.02c.43-.87,1.04-1.54,1.83-2.01s1.7-.71,2.73-.71c.72,0,1.38.14,1.96.42.58.28,1.08.68,1.48,1.19v-5.71h3.73ZM242.36,86.22c.45-.53.67-1.21.67-2.05s-.22-1.54-.67-2.06c-.45-.52-1.04-.77-1.77-.77s-1.31.26-1.77.78c-.45.52-.68,1.2-.68,2.05s.23,1.52.68,2.05c.46.53,1.04.79,1.77.79s1.32-.26,1.77-.79Z"/>
    <path class="cls-1" d="M258.49,79.37c.87.72,1.31,1.73,1.32,3.03v7.39h-3.67v-1.28c-.76.96-1.9,1.45-3.42,1.45-1.2,0-2.15-.32-2.85-.97-.69-.65-1.04-1.51-1.04-2.57s.37-1.92,1.12-2.52c.75-.6,1.82-.91,3.23-.92h2.96v-.12c0-.55-.19-.97-.56-1.26-.37-.29-.91-.44-1.6-.44-.48,0-1.02.08-1.61.23-.59.15-1.19.38-1.79.67l-1.03-2.51c.92-.42,1.81-.73,2.66-.93s1.73-.31,2.64-.31c1.57,0,2.78.36,3.65,1.08ZM255.35,87.02c.42-.27.69-.63.79-1.07v-.98h-2.22c-1.05,0-1.58.39-1.58,1.18,0,.39.14.7.41.93s.65.35,1.13.35c.56,0,1.05-.14,1.47-.41Z"/>
    <path class="cls-1" d="M273.79,74.21v15.59h-3.73v-1.47c-.39.53-.87.93-1.44,1.2-.57.27-1.21.41-1.93.41-1.05,0-1.98-.24-2.77-.73-.8-.49-1.42-1.18-1.86-2.07-.44-.89-.66-1.91-.66-3.08s.22-2.16.65-3.02c.43-.87,1.04-1.54,1.83-2.01s1.7-.71,2.73-.71c.72,0,1.38.14,1.96.42.58.28,1.08.68,1.48,1.19v-5.71h3.73ZM269.39,86.22c.45-.53.67-1.21.67-2.05s-.22-1.54-.67-2.06c-.45-.52-1.04-.77-1.77-.77s-1.31.26-1.77.78c-.45.52-.68,1.2-.68,2.05s.23,1.52.68,2.05c.46.53,1.04.79,1.77.79s1.32-.26,1.77-.79Z"/>
    <path class="cls-1" d="M293.86,89.8l-1-2.6h-6.37l-1.03,2.6h-3.95l6.32-14.72h3.95l6.17,14.72h-4.09ZM287.64,84.25h4.07l-2.02-5.25-2.05,5.25Z"/>
    <path class="cls-1" d="M309.88,78.44v11.36h-3.74v-1.85c-.77,1.32-1.98,1.99-3.63,2.01-1.23,0-2.21-.39-2.95-1.18-.74-.79-1.11-1.84-1.11-3.16v-7.18h3.74v6.11c0,.64.16,1.15.49,1.51.33.37.77.55,1.33.55.66-.01,1.17-.26,1.55-.73.38-.47.57-1.08.57-1.83v-5.61h3.74Z"/>
    <path class="cls-1" d="M324.19,74.21v15.59h-3.73v-1.47c-.39.53-.87.93-1.44,1.2-.57.27-1.21.41-1.93.41-1.05,0-1.98-.24-2.77-.73-.8-.49-1.42-1.18-1.86-2.07-.44-.89-.66-1.91-.66-3.08s.22-2.16.65-3.02c.43-.87,1.04-1.54,1.83-2.01s1.7-.71,2.73-.71c.72,0,1.38.14,1.96.42.58.28,1.08.68,1.48,1.19v-5.71h3.73ZM319.78,86.22c.45-.53.67-1.21.67-2.05s-.22-1.54-.67-2.06c-.45-.52-1.04-.77-1.77-.77s-1.31.26-1.77.78c-.46.52-.68,1.2-.68,2.05s.23,1.52.68,2.05c.45.53,1.04.79,1.77.79s1.32-.26,1.77-.79Z"/>
    <path class="cls-1" d="M330.43,73.77c.37.37.55.85.55,1.44s-.18,1.05-.55,1.43-.84.56-1.42.56-1.05-.19-1.42-.56c-.37-.38-.56-.85-.56-1.43s.19-1.07.56-1.44.85-.56,1.42-.56,1.05.19,1.42.56ZM327.14,78.44h3.72v11.36h-3.72v-11.36Z"/>
    <path class="cls-1" d="M341.11,89.21c-.42.24-.9.42-1.45.55s-1.1.19-1.66.19c-1.12,0-2.03-.32-2.72-.96-.69-.64-1.04-1.53-1.04-2.67v-4.87h-1.57v-2.48h1.57v-3.15h3.72v3.15h2.94v2.48h-2.94v4.29c0,.8.33,1.2.98,1.19.4,0,.89-.12,1.46-.37l.71,2.65Z"/>
    <path class="cls-1" d="M346.17,73.77c.37.37.55.85.55,1.44s-.18,1.05-.55,1.43-.84.56-1.42.56-1.05-.19-1.42-.56c-.37-.38-.56-.85-.56-1.43s.19-1.07.56-1.44.85-.56,1.42-.56,1.05.19,1.42.56ZM342.88,78.44h3.72v11.36h-3.72v-11.36Z"/>
    <path class="cls-1" d="M347.93,78.44h3.84l2.37,7.9,2.39-7.9h3.74l-4.27,11.36h-3.85l-4.23-11.36Z"/>
    <path class="cls-1" d="M369.98,79.37c.87.72,1.31,1.73,1.32,3.03v7.39h-3.67v-1.28c-.76.96-1.9,1.45-3.42,1.45-1.2,0-2.15-.32-2.85-.97-.69-.65-1.04-1.51-1.04-2.57s.38-1.92,1.12-2.52c.75-.6,1.82-.91,3.22-.92h2.96v-.12c0-.55-.19-.97-.56-1.26-.37-.29-.91-.44-1.61-.44-.48,0-1.01.08-1.61.23-.59.15-1.19.38-1.79.67l-1.03-2.51c.92-.42,1.81-.73,2.66-.93s1.73-.31,2.63-.31c1.57,0,2.78.36,3.65,1.08ZM366.84,87.02c.42-.27.69-.63.79-1.07v-.98h-2.23c-1.05,0-1.58.39-1.58,1.18,0,.39.14.7.41.93s.65.35,1.13.35c.56,0,1.05-.14,1.47-.41Z"/>
    <path class="cls-1" d="M384.51,93.27c-.73.51-1.63.77-2.71.77-.63,0-1.22-.1-1.76-.29s-1.08-.49-1.6-.89l1.56-2.58c.27.23.52.39.76.49.24.1.49.15.75.15.62,0,1.07-.29,1.37-.86l.27-.53-4.71-11.08h3.85l2.71,7.39,2.42-7.39h3.71l-4.87,12.48c-.43,1.06-1.01,1.85-1.74,2.36Z"/>
    <path class="cls-1" d="M409.49,89.8l-1-2.6h-6.37l-1.03,2.6h-3.95l6.32-14.72h3.95l6.17,14.72h-4.09ZM403.28,84.25h4.07l-2.02-5.25-2.05,5.25Z"/>
    <path class="cls-1" d="M419.53,81.4c-.67,0-1.21.25-1.63.76-.42.51-.63,1.17-.63,1.98s.21,1.49.63,1.99c.42.5.96.75,1.63.75,1.04,0,1.78-.43,2.23-1.28l2.75,1.58c-.45.87-1.12,1.54-2.01,2.01-.89.48-1.94.71-3.15.71s-2.18-.24-3.07-.71c-.88-.47-1.56-1.15-2.04-2.01-.48-.87-.72-1.88-.72-3.02s.25-2.19.74-3.08,1.18-1.57,2.07-2.06c.89-.48,1.91-.72,3.08-.72s2.14.23,3.03.7c.88.47,1.57,1.13,2.05,1.98l-2.71,1.57c-.53-.78-1.28-1.17-2.23-1.17Z"/>
    <path class="cls-1" d="M431,81.4c-.67,0-1.22.25-1.64.76-.42.51-.63,1.17-.63,1.98s.21,1.49.63,1.99c.42.5.97.75,1.64.75,1.04,0,1.78-.43,2.22-1.28l2.75,1.58c-.45.87-1.12,1.54-2.01,2.01-.89.48-1.94.71-3.15.71s-2.18-.24-3.07-.71c-.88-.47-1.56-1.15-2.05-2.01-.48-.87-.72-1.88-.72-3.02s.25-2.19.74-3.08,1.18-1.57,2.07-2.06c.89-.48,1.91-.72,3.08-.72s2.14.23,3.02.7c.88.47,1.57,1.13,2.05,1.98l-2.71,1.57c-.53-.78-1.27-1.17-2.22-1.17Z"/>
    <path class="cls-1" d="M446.63,79.95c1,1.09,1.49,2.59,1.49,4.5,0,.29,0,.52-.02.67h-7.9c.18.64.5,1.14.94,1.48.44.35.99.52,1.64.52.49,0,.96-.1,1.42-.29.45-.2.87-.48,1.25-.87l1.95,1.96c-.59.66-1.3,1.16-2.13,1.5s-1.77.51-2.82.51c-1.22,0-2.28-.24-3.19-.71-.91-.47-1.61-1.15-2.09-2.01-.48-.87-.72-1.88-.72-3.02s.25-2.19.74-3.08,1.19-1.57,2.08-2.06c.9-.48,1.93-.72,3.11-.72,1.85,0,3.27.55,4.26,1.64ZM444.5,83.12c0-.66-.19-1.18-.58-1.58-.39-.4-.89-.6-1.52-.6-.59,0-1.08.19-1.48.58-.4.39-.66.92-.78,1.6h4.37Z"/>
    <path class="cls-1" d="M453.99,80.88c-.32,0-.58.06-.77.17-.19.12-.29.29-.29.53,0,.25.15.46.46.61.31.15.8.32,1.47.51.81.24,1.49.47,2.03.7.54.23,1,.58,1.39,1.05.39.47.58,1.08.58,1.84,0,1.15-.44,2.05-1.33,2.7s-2.05.97-3.48.97c-.96,0-1.89-.13-2.77-.41-.88-.27-1.67-.67-2.35-1.2l1.17-2.42c.64.45,1.32.8,2.03,1.04.71.24,1.38.36,2.01.36.36,0,.65-.06.87-.17.21-.12.32-.29.32-.51,0-.28-.16-.5-.47-.65-.31-.15-.81-.32-1.48-.51-.8-.24-1.46-.47-1.97-.7-.52-.23-.97-.57-1.35-1.04-.39-.46-.58-1.06-.58-1.81,0-1.15.43-2.05,1.3-2.7s1.99-.97,3.36-.97c.83,0,1.64.11,2.45.33.8.22,1.56.55,2.27.99l-1.25,2.43c-1.48-.77-2.68-1.15-3.62-1.15Z"/>
    <path class="cls-1" d="M464.16,73.77c.37.37.55.85.55,1.44s-.18,1.05-.55,1.43-.84.56-1.42.56-1.05-.19-1.42-.56c-.37-.38-.56-.85-.56-1.43s.19-1.07.56-1.44.85-.56,1.42-.56,1.05.19,1.42.56ZM460.87,78.44h3.72v11.36h-3.72v-11.36Z"/>
    <path class="cls-1" d="M477.4,79.04c.8.48,1.42,1.17,1.86,2.06.44.89.66,1.91.66,3.08s-.21,2.16-.64,3.02c-.43.87-1.04,1.54-1.83,2.01-.79.48-1.71.71-2.74.71-.71,0-1.36-.14-1.94-.41-.58-.27-1.08-.67-1.48-1.18v1.47h-3.73v-15.59h3.73v5.69c.83-1.07,1.94-1.6,3.34-1.59,1.05,0,1.97.24,2.77.72ZM475.48,86.12c.46-.52.68-1.19.68-2.04s-.23-1.52-.68-2.05c-.45-.53-1.04-.79-1.77-.79s-1.29.26-1.74.79-.68,1.21-.68,2.05.22,1.52.67,2.04c.45.52,1.03.77,1.75.77s1.31-.26,1.77-.77Z"/>
    <path class="cls-1" d="M485.13,73.77c.37.37.55.85.55,1.44s-.18,1.05-.55,1.43-.84.56-1.42.56-1.05-.19-1.42-.56c-.37-.38-.56-.85-.56-1.43s.19-1.07.56-1.44.85-.56,1.42-.56,1.05.19,1.42.56ZM481.84,78.44h3.72v11.36h-3.72v-11.36Z"/>
    <path class="cls-1" d="M488.53,74.21h3.73v15.59h-3.73v-15.59Z"/>
    <path class="cls-1" d="M498.5,73.77c.37.37.55.85.55,1.44s-.18,1.05-.55,1.43-.84.56-1.42.56-1.05-.19-1.42-.56c-.37-.38-.56-.85-.56-1.43s.19-1.07.56-1.44.85-.56,1.42-.56,1.05.19,1.42.56ZM495.21,78.44h3.72v11.36h-3.72v-11.36Z"/>
    <path class="cls-1" d="M513.25,74.21v15.59h-3.73v-1.47c-.39.53-.87.93-1.44,1.2-.57.27-1.21.41-1.93.41-1.05,0-1.98-.24-2.77-.73-.8-.49-1.42-1.18-1.86-2.07-.44-.89-.66-1.91-.66-3.08s.22-2.16.65-3.02c.43-.87,1.04-1.54,1.83-2.01s1.7-.71,2.73-.71c.72,0,1.38.14,1.96.42.58.28,1.08.68,1.48,1.19v-5.71h3.73ZM508.85,86.22c.45-.53.67-1.21.67-2.05s-.22-1.54-.67-2.06c-.45-.52-1.04-.77-1.77-.77s-1.31.26-1.77.78c-.46.52-.68,1.2-.68,2.05s.23,1.52.68,2.05c.45.53,1.04.79,1.77.79s1.32-.26,1.77-.79Z"/>
    <path class="cls-1" d="M524.98,79.37c.87.72,1.31,1.73,1.32,3.03v7.39h-3.67v-1.28c-.76.96-1.9,1.45-3.42,1.45-1.2,0-2.15-.32-2.85-.97-.69-.65-1.04-1.51-1.04-2.57s.38-1.92,1.12-2.52c.75-.6,1.82-.91,3.22-.92h2.96v-.12c0-.55-.19-.97-.56-1.26-.37-.29-.91-.44-1.61-.44-.48,0-1.01.08-1.61.23-.59.15-1.19.38-1.79.67l-1.03-2.51c.92-.42,1.81-.73,2.66-.93s1.73-.31,2.64-.31c1.56,0,2.78.36,3.65,1.08ZM521.84,87.02c.42-.27.69-.63.79-1.07v-.98h-2.23c-1.05,0-1.58.39-1.58,1.18,0,.39.14.7.41.93s.65.35,1.13.35c.56,0,1.05-.14,1.47-.41Z"/>
    <path class="cls-1" d="M540.28,74.21v15.59h-3.73v-1.47c-.39.53-.87.93-1.44,1.2-.57.27-1.21.41-1.93.41-1.05,0-1.98-.24-2.77-.73-.8-.49-1.42-1.18-1.86-2.07-.44-.89-.66-1.91-.66-3.08s.22-2.16.65-3.02c.43-.87,1.04-1.54,1.83-2.01.79-.48,1.69-.71,2.73-.71.72,0,1.38.14,1.96.42.58.28,1.08.68,1.48,1.19v-5.71h3.73ZM535.88,86.22c.45-.53.67-1.21.67-2.05s-.22-1.54-.67-2.06c-.45-.52-1.04-.77-1.77-.77s-1.31.26-1.77.78c-.45.52-.68,1.2-.68,2.05s.23,1.52.68,2.05c.46.53,1.04.79,1.77.79s1.32-.26,1.77-.79Z"/>
  </g>
</svg>