<svg id="Capa_1" data-name="Capa 1" xmlns="http://www.w3.org/2000/svg" viewBox="0 0 150.28 149.26"><rect x="-230.76" y="-126.49" width="595.28" height="841.89" fill="none"/><rect x="-230.76" y="-126.49" width="595.28" height="841.89" fill="none"/><rect x="-230.76" y="-126.49" width="595.28" height="841.89" fill="none"/><rect x="-230.76" y="-126.49" width="595.28" height="841.89" fill="none"/><rect x="-230.76" y="-126.49" width="595.28" height="841.89" fill="none"/><rect x="-230.76" y="-126.49" width="595.28" height="841.89" fill="none"/><path d="M66.85,82.18a5,5,0,0,1-3.37-1.06,4.08,4.08,0,0,1-1.3-3.1c0-.27,0-.72,0-1.35s0-1.09,0-1.38a4,4,0,0,1,1.31-3.07,5,5,0,0,1,3.36-1.08,6.22,6.22,0,0,1,2.4.44,3.92,3.92,0,0,1,1.68,1.29,3.45,3.45,0,0,1,.65,2,.28.28,0,0,1-.1.23.33.33,0,0,1-.23.1H69.11a.46.46,0,0,1-.31-.09.79.79,0,0,1-.17-.31A1.81,1.81,0,0,0,68,73.74a2,2,0,0,0-1.14-.3c-1.13,0-1.72.64-1.76,1.93,0,.28,0,.7,0,1.27s0,1,0,1.31c0,1.28.63,1.93,1.76,1.93A1.9,1.9,0,0,0,68,79.57a1.72,1.72,0,0,0,.64-1,.6.6,0,0,1,.17-.32.52.52,0,0,1,.31-.08h2.14a.32.32,0,0,1,.23.09.29.29,0,0,1,.1.23,3.43,3.43,0,0,1-.65,2,3.77,3.77,0,0,1-1.68,1.29,6,6,0,0,1-2.4.45m-10.67,0a5,5,0,0,1-3.42-1.08A4.11,4.11,0,0,1,51.45,78c0-.29,0-.75,0-1.4s0-1.11,0-1.41a3.88,3.88,0,0,1,1.32-3,5.1,5.1,0,0,1,3.41-1.06,6.33,6.33,0,0,1,2.52.47,4.15,4.15,0,0,1,1.64,1.22,2.67,2.67,0,0,1,.59,1.53.32.32,0,0,1-.09.23.33.33,0,0,1-.24.1H58.27a.37.37,0,0,1-.23,0,.61.61,0,0,1-.16-.16,1.79,1.79,0,0,0-.58-.74,1.84,1.84,0,0,0-1.12-.3c-1.16,0-1.77.61-1.81,1.84,0,.28,0,.72,0,1.32s0,1,0,1.33c0,1.3.66,1.95,1.84,1.95a2,2,0,0,0,1.38-.45,1.68,1.68,0,0,0,.51-1.35v-.27H56.77a.41.41,0,0,1-.4-.4v-1.2a.38.38,0,0,1,.12-.28.36.36,0,0,1,.28-.12h3.82a.38.38,0,0,1,.28.12.41.41,0,0,1,.11.28V78a4.11,4.11,0,0,1-.6,2.25,3.74,3.74,0,0,1-1.67,1.44,6.08,6.08,0,0,1-2.53.5m-9.91-6a1.37,1.37,0,0,0,1-.33,1.26,1.26,0,0,0,.35-1,1.36,1.36,0,0,0-.32-1,1.24,1.24,0,0,0-1-.37H44.58v2.64ZM42.09,82a.36.36,0,0,1-.27-.11.4.4,0,0,1-.11-.27v-10a.39.39,0,0,1,.11-.28.34.34,0,0,1,.27-.12h4.26a4.73,4.73,0,0,1,3.06.9,3.22,3.22,0,0,1,1.12,2.66,3.09,3.09,0,0,1-1.12,2.61,4.84,4.84,0,0,1-3.06.87H44.63v3.31a.4.4,0,0,1-.11.27.33.33,0,0,1-.27.11Zm-8.87,0a.36.36,0,0,1-.27-.11.4.4,0,0,1-.11-.27v-10A.37.37,0,0,1,33,71.4a.4.4,0,0,1,.27-.11h2.1a.38.38,0,0,1,.38.38v8h4.51a.39.39,0,0,1,.28.11.38.38,0,0,1,.11.29v1.62a.36.36,0,0,1-.11.28.39.39,0,0,1-.28.1Zm-6.71.16a5,5,0,0,1-3.35-1.06A4,4,0,0,1,22,78V71.69a.39.39,0,0,1,.11-.28.34.34,0,0,1,.27-.12h2.06a.38.38,0,0,1,.28.12.39.39,0,0,1,.11.28v6.22a2,2,0,0,0,.45,1.43,1.91,1.91,0,0,0,2.54,0,2,2,0,0,0,.44-1.42V71.69a.36.36,0,0,1,.12-.28.34.34,0,0,1,.27-.12h2a.38.38,0,0,1,.28.12.39.39,0,0,1,.11.28V78a4,4,0,0,1-1.2,3.17,4.89,4.89,0,0,1-3.33,1.06" fill="#f59b09"/><path d="M56.31,21.83c10.18,0,15.27,7.64,15.27,16.54.12,4.06,0,6.38,0,11.45H67.76s-3.35,7.26,2.55,11.46c0,.25-21.76,7.17-26.73-14,0,.25,11.25,7.12,17.82,5.09,0,0,2.56-9.5.66-15.25-2.47-7.43-13.33-5.35-18.47-2.36C30.82,42.18,26.78,53.69,22,62.55c0,0,3.17-40.72,34.36-40.72m57.78,103.94a1.47,1.47,0,0,0,1.1-.44,1.82,1.82,0,0,0,.42-1.29v-.19l-1.27.22c-.86.16-1.29.47-1.29.92a.69.69,0,0,0,.3.57,1.27,1.27,0,0,0,.74.21m-.76,1.81a3.53,3.53,0,0,1-1.48-.31,2.52,2.52,0,0,1-1-.87,2.1,2.1,0,0,1-.37-1.21,2,2,0,0,1,.86-1.7,5.41,5.41,0,0,1,2.39-.89l1.9-.3v-.18a1.27,1.27,0,0,0-.23-.83,1,1,0,0,0-.78-.26,1.14,1.14,0,0,0-.52.11,3,3,0,0,0-.46.32,2,2,0,0,1-.36.25.17.17,0,0,1-.15.1H111.3a.32.32,0,0,1-.25-.1.25.25,0,0,1-.09-.23,1.65,1.65,0,0,1,.42-.93,3.06,3.06,0,0,1,1.21-.88,4.78,4.78,0,0,1,2-.37,4.11,4.11,0,0,1,2.82.83,2.94,2.94,0,0,1,.92,2.27V127a.4.4,0,0,1-.11.27.34.34,0,0,1-.27.12h-1.89a.37.37,0,0,1-.27-.12.36.36,0,0,1-.11-.27v-.53a2.58,2.58,0,0,1-.94.77,3.13,3.13,0,0,1-1.42.3m-6.31-.15a.34.34,0,0,1-.27-.12.37.37,0,0,1-.12-.27v-7.2a.35.35,0,0,1,.12-.28.37.37,0,0,1,.27-.11h1.91a.44.44,0,0,1,.29.11.38.38,0,0,1,.11.28V127a.38.38,0,0,1-.11.28.44.44,0,0,1-.29.11Zm0-9.08a.35.35,0,0,1-.28-.12.39.39,0,0,1-.11-.28v-1.43a.38.38,0,0,1,.12-.28.34.34,0,0,1,.27-.12h1.91a.4.4,0,0,1,.29.12.41.41,0,0,1,.11.28V118a.39.39,0,0,1-.11.28.4.4,0,0,1-.29.12Zm-6.91,9.08a.36.36,0,0,1-.27-.12.37.37,0,0,1-.12-.27v-7.19a.39.39,0,0,1,.11-.28.35.35,0,0,1,.28-.12H102a.41.41,0,0,1,.4.4v.58a2.84,2.84,0,0,1,1-.72,3.11,3.11,0,0,1,1.28-.26h.69a.39.39,0,0,1,.28.11.37.37,0,0,1,.1.28v1.67a.36.36,0,0,1-.38.38H103.8a1.23,1.23,0,0,0-.94.34,1.29,1.29,0,0,0-.33,1V127a.35.35,0,0,1-.12.28.39.39,0,0,1-.28.11ZM94,125.77a1.45,1.45,0,0,0,1.09-.44,1.82,1.82,0,0,0,.42-1.29v-.19l-1.27.22c-.86.16-1.29.47-1.29.92a.69.69,0,0,0,.3.57,1.28,1.28,0,0,0,.75.21m-.77,1.81a3.56,3.56,0,0,1-1.48-.31,2.49,2.49,0,0,1-1-.87,2.11,2.11,0,0,1-.38-1.21,2,2,0,0,1,.87-1.7,5.37,5.37,0,0,1,2.38-.89l1.9-.3v-.18a1.21,1.21,0,0,0-.23-.83,1,1,0,0,0-.78-.26,1.13,1.13,0,0,0-.51.11,2.62,2.62,0,0,0-.47.32,2,2,0,0,1-.35.25.17.17,0,0,1-.16.1H91.18a.34.34,0,0,1-.26-.1.27.27,0,0,1-.08-.23,1.7,1.7,0,0,1,.41-.93,3.14,3.14,0,0,1,1.21-.88,4.78,4.78,0,0,1,2-.37,4.11,4.11,0,0,1,2.82.83,2.9,2.9,0,0,1,.92,2.27V127a.39.39,0,0,1-.1.27.38.38,0,0,1-.28.12H95.94a.34.34,0,0,1-.26-.12.37.37,0,0,1-.12-.27v-.53a2.55,2.55,0,0,1-.93.77,3.17,3.17,0,0,1-1.43.3m-11.77-.15a.37.37,0,0,1-.27-.12.4.4,0,0,1-.11-.27v-7.2a.38.38,0,0,1,.11-.28.4.4,0,0,1,.27-.11h1.89a.37.37,0,0,1,.27.11.38.38,0,0,1,.11.28v.58a2.92,2.92,0,0,1,1.07-.81,3.36,3.36,0,0,1,1.49-.31,3,3,0,0,1,1.56.4,2.74,2.74,0,0,1,1.07,1.18,4.18,4.18,0,0,1,.39,1.88V127a.36.36,0,0,1-.11.27.34.34,0,0,1-.27.12h-2a.39.39,0,0,1-.28-.11.35.35,0,0,1-.12-.28v-4.18a1.53,1.53,0,0,0-.33-1.06,1.21,1.21,0,0,0-1-.37,1.24,1.24,0,0,0-1,.38,1.45,1.45,0,0,0-.36,1V127a.39.39,0,0,1-.1.27.38.38,0,0,1-.28.12Zm-6.14-1.66a1.48,1.48,0,0,0,1.1-.44,1.82,1.82,0,0,0,.42-1.29v-.19l-1.28.22c-.85.16-1.28.47-1.28.92a.69.69,0,0,0,.3.57,1.24,1.24,0,0,0,.74.21m-.77,1.81a3.6,3.6,0,0,1-1.48-.31,2.55,2.55,0,0,1-1-.87,2.11,2.11,0,0,1-.38-1.21,2,2,0,0,1,.87-1.7,5.36,5.36,0,0,1,2.39-.89l1.9-.3v-.18a1.27,1.27,0,0,0-.23-.83,1,1,0,0,0-.79-.26,1.13,1.13,0,0,0-.51.11,3,3,0,0,0-.47.32,2,2,0,0,1-.35.25.17.17,0,0,1-.15.1H72.5a.32.32,0,0,1-.25-.1.25.25,0,0,1-.09-.23,1.65,1.65,0,0,1,.42-.93,3,3,0,0,1,1.21-.88,4.78,4.78,0,0,1,2-.37,4.15,4.15,0,0,1,2.82.83,2.94,2.94,0,0,1,.92,2.27V127a.4.4,0,0,1-.11.27.35.35,0,0,1-.28.12H77.27a.41.41,0,0,1-.39-.39v-.53a2.47,2.47,0,0,1-.93.77,3.17,3.17,0,0,1-1.43.3m-8.45,0a5.16,5.16,0,0,1-3.45-1.06,4,4,0,0,1-1.32-3.1c0-.27,0-.72,0-1.35s0-1.09,0-1.38a4.05,4.05,0,0,1,1.34-3.07,5.09,5.09,0,0,1,3.43-1.08,6.47,6.47,0,0,1,2.44.44,4,4,0,0,1,1.71,1.29,3.4,3.4,0,0,1,.66,2,.3.3,0,0,1-.1.23.34.34,0,0,1-.24.09H68.37a.47.47,0,0,1-.32-.09.72.72,0,0,1-.17-.31,1.82,1.82,0,0,0-.66-1,2,2,0,0,0-1.15-.3c-1.16,0-1.76.64-1.8,1.93,0,.28,0,.7,0,1.27s0,1,0,1.31c0,1.29.64,1.93,1.8,1.93a2,2,0,0,0,1.15-.31,1.73,1.73,0,0,0,.66-1,.56.56,0,0,1,.16-.31.52.52,0,0,1,.33-.09h2.17a.34.34,0,0,1,.24.09.29.29,0,0,1,.1.23,3.42,3.42,0,0,1-.66,2,3.91,3.91,0,0,1-1.71,1.28,6.28,6.28,0,0,1-2.44.45m-17.2-.15a.37.37,0,0,1-.27-.12.36.36,0,0,1-.11-.27v-7.2a.34.34,0,0,1,.11-.28.4.4,0,0,1,.27-.11h1.88a.38.38,0,0,1,.39.39v.58a2.88,2.88,0,0,1,1.06-.81,3.44,3.44,0,0,1,1.5-.31,3,3,0,0,1,1.56.4,2.74,2.74,0,0,1,1.07,1.18,4.18,4.18,0,0,1,.39,1.88V127a.4.4,0,0,1-.11.27.34.34,0,0,1-.27.12h-2a.42.42,0,0,1-.29-.11.38.38,0,0,1-.11-.28v-4.18a1.53,1.53,0,0,0-.33-1.06,1.21,1.21,0,0,0-1-.37,1.28,1.28,0,0,0-1,.38,1.5,1.5,0,0,0-.35,1V127a.36.36,0,0,1-.11.27.34.34,0,0,1-.27.12Zm-6.14-1.66a1.45,1.45,0,0,0,1.09-.44,1.78,1.78,0,0,0,.43-1.29v-.19l-1.28.22c-.86.16-1.28.47-1.28.92a.68.68,0,0,0,.29.57,1.28,1.28,0,0,0,.75.21M42,127.58a3.6,3.6,0,0,1-1.48-.31,2.55,2.55,0,0,1-1-.87,2.11,2.11,0,0,1-.38-1.21,2,2,0,0,1,.87-1.7,5.37,5.37,0,0,1,2.38-.89l1.91-.3v-.18a1.27,1.27,0,0,0-.23-.83,1,1,0,0,0-.79-.26,1.13,1.13,0,0,0-.51.11,3,3,0,0,0-.47.32,2,2,0,0,1-.35.25.17.17,0,0,1-.15.1H39.94a.34.34,0,0,1-.26-.1.27.27,0,0,1-.08-.23,1.7,1.7,0,0,1,.41-.93,3.1,3.1,0,0,1,1.22-.88,4.76,4.76,0,0,1,2-.37,4.16,4.16,0,0,1,2.83.83A2.94,2.94,0,0,1,47,122.4V127a.4.4,0,0,1-.11.27.36.36,0,0,1-.28.12H44.71a.34.34,0,0,1-.27-.12.37.37,0,0,1-.12-.27v-.53a2.47,2.47,0,0,1-.93.77,3.17,3.17,0,0,1-1.43.3M33,127.43a.37.37,0,0,1-.27-.12.36.36,0,0,1-.11-.27v-7.19a.39.39,0,0,1,.1-.28.36.36,0,0,1,.28-.12H34.9a.41.41,0,0,1,.4.4v.58a2.84,2.84,0,0,1,1-.72,3.15,3.15,0,0,1,1.28-.26h.69a.38.38,0,0,1,.39.39v1.67a.4.4,0,0,1-.11.27.38.38,0,0,1-.28.11H36.72a1.25,1.25,0,0,0-.94.34,1.29,1.29,0,0,0-.33,1V127a.38.38,0,0,1-.11.28.42.42,0,0,1-.29.11Zm-6.65.15a5.18,5.18,0,0,1-3.48-1.08,4.06,4.06,0,0,1-1.33-3.09c0-.29,0-.75,0-1.4s0-1.11,0-1.41a3.85,3.85,0,0,1,1.34-3,5.25,5.25,0,0,1,3.47-1.06A6.55,6.55,0,0,1,29,117a4.19,4.19,0,0,1,1.67,1.22,2.7,2.7,0,0,1,.61,1.53.34.34,0,0,1-.34.34H28.51a.37.37,0,0,1-.23-.06.62.62,0,0,1-.17-.16,1.79,1.79,0,0,0-.59-.73,1.82,1.82,0,0,0-1.14-.31,1.66,1.66,0,0,0-1.84,1.84c0,.29,0,.73,0,1.32s0,1,0,1.33c0,1.3.67,2,1.87,2a2.06,2.06,0,0,0,1.41-.45,1.64,1.64,0,0,0,.52-1.34v-.28H27a.41.41,0,0,1-.4-.4v-1.2a.38.38,0,0,1,.12-.28.36.36,0,0,1,.28-.11h3.89a.38.38,0,0,1,.29.11.41.41,0,0,1,.11.28v1.78a4.11,4.11,0,0,1-.6,2.25A3.9,3.9,0,0,1,29,127.08a6.28,6.28,0,0,1-2.58.5m97.34-20.1v0a1.87,1.87,0,0,0-.32-1.15,1.09,1.09,0,0,0-.91-.4,1.06,1.06,0,0,0-.89.4,1.87,1.87,0,0,0-.32,1.15v0Zm-1.21,5a4.11,4.11,0,0,1-2.94-1,3.88,3.88,0,0,1-1.11-2.92V108a4,4,0,0,1,1.14-2.85,4,4,0,0,1,2.89-1,4.45,4.45,0,0,1,2.24.52,3.42,3.42,0,0,1,1.36,1.46,4.77,4.77,0,0,1,.45,2.11v.38a.38.38,0,0,1-.4.4h-4.86v.09a1.93,1.93,0,0,0,.33,1.12,1,1,0,0,0,.87.42,1,1,0,0,0,.59-.15,2.07,2.07,0,0,0,.42-.37.88.88,0,0,1,.22-.2.91.91,0,0,1,.27,0h2a.35.35,0,0,1,.24.08.26.26,0,0,1,.1.21,1.58,1.58,0,0,1-.45.93,3.55,3.55,0,0,1-1.32.92,5,5,0,0,1-2,.39m-9.42-2.14a1.16,1.16,0,0,0,1-.42,1.86,1.86,0,0,0,.35-1.06c0-.29,0-.48,0-.59s0-.3,0-.56a1.61,1.61,0,0,0-.36-1,1.19,1.19,0,0,0-1-.39,1.15,1.15,0,0,0-1,.4,2.1,2.1,0,0,0-.35,1.13v1a2.1,2.1,0,0,0,.35,1.13,1.15,1.15,0,0,0,1,.4m-.89,2.14a3,3,0,0,1-2.34-.94,4,4,0,0,1-.91-2.67l0-.53,0-.56a4.05,4.05,0,0,1,.92-2.63,3,3,0,0,1,2.33-1,2.92,2.92,0,0,1,2.22.88v-3.26a.38.38,0,0,1,.39-.38h2a.41.41,0,0,1,.29.1.39.39,0,0,1,.11.28v10.12a.37.37,0,0,1-.11.27.38.38,0,0,1-.29.11H115a.4.4,0,0,1-.27-.11.36.36,0,0,1-.11-.27v-.48a2.9,2.9,0,0,1-2.38,1m-11.25,0a5.35,5.35,0,0,1-2.1-.36,3.11,3.11,0,0,1-1.25-.84,1.47,1.47,0,0,1-.41-.89.3.3,0,0,1,.12-.25.36.36,0,0,1,.25-.1h1.86a.2.2,0,0,1,.15.06l.29.2a3.8,3.8,0,0,0,.55.33,1.57,1.57,0,0,0,.6.11,1.25,1.25,0,0,0,.68-.16.51.51,0,0,0,.27-.45.59.59,0,0,0-.14-.4,1.57,1.57,0,0,0-.55-.3,9.86,9.86,0,0,0-1.24-.3c-1.77-.36-2.65-1.17-2.65-2.45a2,2,0,0,1,.4-1.2,2.79,2.79,0,0,1,1.2-.93,4.56,4.56,0,0,1,1.89-.35,5,5,0,0,1,1.94.34,3.36,3.36,0,0,1,1.25.83,1.36,1.36,0,0,1,.43.88.36.36,0,0,1-.1.25.29.29,0,0,1-.23.1h-1.69a.38.38,0,0,1-.22-.06,2.41,2.41,0,0,1-.36-.23,3.86,3.86,0,0,0-.49-.28,1.14,1.14,0,0,0-.53-.1.88.88,0,0,0-.59.17.5.5,0,0,0-.22.43.52.52,0,0,0,.13.37,1.43,1.43,0,0,0,.54.29,11.57,11.57,0,0,0,1.23.29,4.13,4.13,0,0,1,2.19.92,2.15,2.15,0,0,1,.68,1.56,2.09,2.09,0,0,1-1,1.83,5.06,5.06,0,0,1-2.86.69m-9.1-1.81a1.44,1.44,0,0,0,1.1-.45,1.8,1.8,0,0,0,.42-1.29v-.18l-1.27.21c-.86.17-1.29.47-1.29.92a.66.66,0,0,0,.3.57,1.25,1.25,0,0,0,.74.22m-.77,1.81a3.45,3.45,0,0,1-1.48-.32,2.55,2.55,0,0,1-1-.87,2.08,2.08,0,0,1-.37-1.21,2,2,0,0,1,.86-1.69,5.36,5.36,0,0,1,2.39-.9l1.9-.29V107a1.25,1.25,0,0,0-.23-.83,1,1,0,0,0-.78-.26,1,1,0,0,0-.52.11,2.45,2.45,0,0,0-.47.32,1.83,1.83,0,0,1-.35.24.18.18,0,0,1-.15.11H89.06a.32.32,0,0,1-.25-.1.28.28,0,0,1-.09-.24,1.71,1.71,0,0,1,.42-.93,3.16,3.16,0,0,1,1.21-.88,5,5,0,0,1,2-.36,4.1,4.1,0,0,1,2.82.83,2.92,2.92,0,0,1,.92,2.26v4.65a.4.4,0,0,1-.11.27.38.38,0,0,1-.28.11H93.83a.4.4,0,0,1-.27-.11.37.37,0,0,1-.12-.27v-.54a2.4,2.4,0,0,1-.93.78,3.15,3.15,0,0,1-1.43.3m-15.94-.16a.36.36,0,0,1-.26-.11.37.37,0,0,1-.12-.27V104.7a.34.34,0,0,1,.12-.27.33.33,0,0,1,.26-.11h1.78a.34.34,0,0,1,.28.11.37.37,0,0,1,.11.27v.52a3.16,3.16,0,0,1,1-.75,2.82,2.82,0,0,1,1.32-.3,2.32,2.32,0,0,1,2.31,1.31,3,3,0,0,1,1-1,2.9,2.9,0,0,1,1.41-.36,2.66,2.66,0,0,1,2,.85,3.62,3.62,0,0,1,.79,2.53v4.36a.4.4,0,0,1-.11.27.39.39,0,0,1-.28.11H84.9a.38.38,0,0,1-.29-.11.37.37,0,0,1-.11-.27v-4.25a1.49,1.49,0,0,0-.3-1,1,1,0,0,0-.81-.33,1,1,0,0,0-.77.33,1.49,1.49,0,0,0-.3,1v4.25a.4.4,0,0,1-.11.27.37.37,0,0,1-.27.11H80.05a.36.36,0,0,1-.28-.11.34.34,0,0,1-.12-.27v-4.25a1.49,1.49,0,0,0-.3-1,1,1,0,0,0-.8-.33,1,1,0,0,0-.78.33,1.43,1.43,0,0,0-.31,1v4.26a.4.4,0,0,1-.11.27.37.37,0,0,1-.27.11Zm-4.27,0a.37.37,0,0,1-.28-.11.34.34,0,0,1-.12-.27V101.79a.36.36,0,0,1,.12-.28.4.4,0,0,1,.28-.1h1.92a.4.4,0,0,1,.28.1.39.39,0,0,1,.1.28v10.12a.39.39,0,0,1-.1.27.41.41,0,0,1-.28.11Zm-6.15-1.65a1.42,1.42,0,0,0,1.09-.45,1.8,1.8,0,0,0,.42-1.29v-.18l-1.27.21c-.86.17-1.29.47-1.29.92a.66.66,0,0,0,.3.57,1.28,1.28,0,0,0,.75.22M64,112.45a3.42,3.42,0,0,1-1.48-.32,2.55,2.55,0,0,1-1-.87,2.09,2.09,0,0,1-.38-1.21,2,2,0,0,1,.87-1.69,5.37,5.37,0,0,1,2.38-.9l1.9-.29V107a1.19,1.19,0,0,0-.23-.83,1,1,0,0,0-.78-.26,1,1,0,0,0-.51.11,2.18,2.18,0,0,0-.47.32,1.83,1.83,0,0,1-.35.24.18.18,0,0,1-.16.11H61.93a.34.34,0,0,1-.26-.1.31.31,0,0,1-.08-.24,1.76,1.76,0,0,1,.41-.93,3.24,3.24,0,0,1,1.21-.88,5,5,0,0,1,2-.36A4.06,4.06,0,0,1,68,105a2.88,2.88,0,0,1,.92,2.26v4.65a.36.36,0,0,1-.38.38H66.69a.36.36,0,0,1-.26-.11.37.37,0,0,1-.12-.27v-.54a2.48,2.48,0,0,1-.93.78,3.17,3.17,0,0,1-1.43.3m-7.84-6a1.41,1.41,0,0,0,1-.33,1.25,1.25,0,0,0,.36-1,1.41,1.41,0,0,0-.33-1,1.32,1.32,0,0,0-1-.36H54.39v2.63Zm-4.27,5.89a.36.36,0,0,1-.26-.11.37.37,0,0,1-.12-.27V102a.42.42,0,0,1,.11-.29.37.37,0,0,1,.27-.11h4.34a4.92,4.92,0,0,1,3.13.9,3.2,3.2,0,0,1,1.14,2.66,3.08,3.08,0,0,1-1.14,2.61,5,5,0,0,1-3.13.87H54.44v3.31a.4.4,0,0,1-.11.27.39.39,0,0,1-.28.11Zm-8.81.16a5.42,5.42,0,0,1-2.1-.36,3.11,3.11,0,0,1-1.25-.84,1.45,1.45,0,0,1-.4-.89.33.33,0,0,1,.11-.25.37.37,0,0,1,.26-.1H41.5a.2.2,0,0,1,.15.06l.3.2a3.27,3.27,0,0,0,.54.33,1.58,1.58,0,0,0,.61.11,1.29,1.29,0,0,0,.68-.16.51.51,0,0,0,.27-.45.55.55,0,0,0-.15-.4,1.57,1.57,0,0,0-.55-.3,9,9,0,0,0-1.24-.3c-1.76-.36-2.65-1.17-2.65-2.45a2,2,0,0,1,.41-1.2,2.76,2.76,0,0,1,1.19-.93,4.57,4.57,0,0,1,1.9-.35,5,5,0,0,1,1.94.34,3.54,3.54,0,0,1,1.25.83,1.41,1.41,0,0,1,.43.88.42.42,0,0,1-.1.25.33.33,0,0,1-.24.1H44.55a.33.33,0,0,1-.21-.06,2.06,2.06,0,0,1-.37-.23,3.83,3.83,0,0,0-.48-.28,1.19,1.19,0,0,0-.53-.1.89.89,0,0,0-.6.17.54.54,0,0,0-.08.8,1.3,1.3,0,0,0,.53.29,11.29,11.29,0,0,0,1.24.29,4.06,4.06,0,0,1,2.18.92,2.14,2.14,0,0,1-.34,3.39,5.06,5.06,0,0,1-2.86.69m-9.1-1.81a1.44,1.44,0,0,0,1.1-.45,1.8,1.8,0,0,0,.42-1.29v-.18l-1.27.21c-.86.17-1.29.47-1.29.92a.66.66,0,0,0,.3.57,1.27,1.27,0,0,0,.74.22m-.76,1.81a3.42,3.42,0,0,1-1.48-.32,2.52,2.52,0,0,1-1.05-.87,2.08,2.08,0,0,1-.37-1.21,2,2,0,0,1,.87-1.69,5.32,5.32,0,0,1,2.38-.9l1.9-.29V107a1.25,1.25,0,0,0-.23-.83A1.28,1.28,0,0,0,33.9,106a2.18,2.18,0,0,0-.47.32,1.86,1.86,0,0,1-.36.24.18.18,0,0,1-.15.11H31.14a.33.33,0,0,1-.25-.1.27.27,0,0,1-.08-.24,1.69,1.69,0,0,1,.41-.93,3.24,3.24,0,0,1,1.21-.88,5,5,0,0,1,2-.36,4.06,4.06,0,0,1,2.82.83,2.92,2.92,0,0,1,.92,2.26v4.65a.36.36,0,0,1-.11.27.37.37,0,0,1-.27.11H35.91a.38.38,0,0,1-.38-.38v-.54a2.51,2.51,0,0,1-.94.78,3.13,3.13,0,0,1-1.42.3m-10.9-.16a.38.38,0,0,1-.38-.38v-10a.37.37,0,0,1,.11-.27.36.36,0,0,1,.27-.11h2.15a.38.38,0,0,1,.38.38v7.94h4.6a.4.4,0,0,1,.29.12.41.41,0,0,1,.11.28v1.63a.37.37,0,0,1-.11.27.39.39,0,0,1-.29.11ZM126.33,92.47v0a2.19,2.19,0,0,0-.45-1.45,1.65,1.65,0,0,0-2.46,0,2.18,2.18,0,0,0-.44,1.45v0Zm-1.67,4.84a3.75,3.75,0,0,1-2.72-1,3.94,3.94,0,0,1-1.07-2.79v-.38a4.34,4.34,0,0,1,1-3,4.11,4.11,0,0,1,5.6,0,4.26,4.26,0,0,1,1,3v.32a.36.36,0,0,1-.11.26.37.37,0,0,1-.27.11H123v.12a2.39,2.39,0,0,0,.46,1.42,1.46,1.46,0,0,0,1.21.56,1.69,1.69,0,0,0,1.42-.71.85.85,0,0,1,.22-.2.56.56,0,0,1,.26,0h1.35a.35.35,0,0,1,.24.08.27.27,0,0,1,.1.21,1.46,1.46,0,0,1-.44.87,3.58,3.58,0,0,1-1.25.86,4.46,4.46,0,0,1-1.89.37m-9.15-1.65a1.52,1.52,0,0,0,1.3-.56,2.51,2.51,0,0,0,.47-1.39c0-.12,0-.32,0-.58s0-.48,0-.6a2.12,2.12,0,0,0-.48-1.31,1.58,1.58,0,0,0-1.29-.53c-1.09,0-1.67.67-1.74,2l0,.46,0,.46c.07,1.35.65,2,1.74,2m-.58,1.65a3,3,0,0,1-2.38-1,4.31,4.31,0,0,1-.9-2.64l0-.51,0-.5a4.18,4.18,0,0,1,.9-2.63,2.91,2.91,0,0,1,2.38-1,3,3,0,0,1,2.35,1v-3.4a.36.36,0,0,1,.1-.27.38.38,0,0,1,.27-.1H119a.36.36,0,0,1,.27.1.41.41,0,0,1,.1.27V96.79a.4.4,0,0,1-.1.26.37.37,0,0,1-.27.11h-1.24a.38.38,0,0,1-.37-.37v-.57a2.89,2.89,0,0,1-2.44,1.09m-12.15-1.65a1.52,1.52,0,0,0,1.29-.56,2.51,2.51,0,0,0,.47-1.39c0-.12,0-.32,0-.58s0-.48,0-.6a2.17,2.17,0,0,0-.47-1.31,1.61,1.61,0,0,0-1.29-.53c-1.1,0-1.68.67-1.75,2l0,.46,0,.46c.07,1.35.65,2,1.75,2m-.59,1.65a2.91,2.91,0,0,1-2.37-1,4.32,4.32,0,0,1-.91-2.64v-1a4.18,4.18,0,0,1,.9-2.63,3.27,3.27,0,0,1,4.73,0v-3.4a.37.37,0,0,1,.11-.27.35.35,0,0,1,.26-.1h1.33a.35.35,0,0,1,.27.1.36.36,0,0,1,.1.27V96.79a.36.36,0,0,1-.37.37H105a.38.38,0,0,1-.37-.37v-.57a2.88,2.88,0,0,1-2.44,1.09m-8.71-1.47a1.84,1.84,0,0,0,1.38-.55,2.24,2.24,0,0,0,.53-1.6v-.3l-1.53.24c-1.18.19-1.76.58-1.76,1.18a.85.85,0,0,0,.4.76,1.73,1.73,0,0,0,1,.27M93,97.31A3.25,3.25,0,0,1,91.52,97a2.71,2.71,0,0,1-1-.85A2.1,2.1,0,0,1,91,93.28a5.15,5.15,0,0,1,2.32-.88l2.1-.3v-.32a1.37,1.37,0,0,0-.34-1A1.45,1.45,0,0,0,94,90.44a1.53,1.53,0,0,0-.82.19,2.24,2.24,0,0,0-.49.37l-.26.25a.23.23,0,0,1-.23.19H91a.34.34,0,0,1-.24-.09.32.32,0,0,1-.1-.25,1.66,1.66,0,0,1,.37-.87,3,3,0,0,1,1.12-.84A4.27,4.27,0,0,1,94,89a3.66,3.66,0,0,1,2.64.81A2.89,2.89,0,0,1,97.45,92v4.81a.4.4,0,0,1-.1.26.37.37,0,0,1-.27.11H95.81a.35.35,0,0,1-.26-.11.33.33,0,0,1-.11-.26v-.6a2.53,2.53,0,0,1-1,.81,3.35,3.35,0,0,1-1.54.31m-8-1.65a1.54,1.54,0,0,0,1.3-.56,2.51,2.51,0,0,0,.46-1.39c0-.12,0-.32,0-.58s0-.48,0-.6a2.11,2.11,0,0,0-.47-1.31,1.61,1.61,0,0,0-1.29-.53c-1.09,0-1.68.67-1.75,2v.92c.07,1.35.66,2,1.75,2m-.58,1.65a2.93,2.93,0,0,1-2.38-1,4.31,4.31,0,0,1-.9-2.64l0-.51,0-.5A4.24,4.24,0,0,1,82,90a3.27,3.27,0,0,1,4.73,0v-3.4a.37.37,0,0,1,.11-.27.35.35,0,0,1,.26-.1h1.34a.33.33,0,0,1,.26.1.36.36,0,0,1,.1.27V96.79a.35.35,0,0,1-.1.26.33.33,0,0,1-.26.11H87.16a.38.38,0,0,1-.26-.11.35.35,0,0,1-.1-.26v-.57a2.91,2.91,0,0,1-2.44,1.09m-6.48-.15a.38.38,0,0,1-.37-.37V89.55a.37.37,0,0,1,.11-.27.4.4,0,0,1,.26-.1h1.3a.38.38,0,0,1,.37.37v7.24a.38.38,0,0,1-.37.37Zm-.06-9.28a.38.38,0,0,1-.37-.37V86.39a.33.33,0,0,1,.11-.27.35.35,0,0,1,.26-.11h1.41a.38.38,0,0,1,.38.38v1.12a.35.35,0,0,1-.11.26.36.36,0,0,1-.27.11Zm-5.27,9.43a4.82,4.82,0,0,1-2-.35,3.17,3.17,0,0,1-1.16-.82,1.37,1.37,0,0,1-.37-.81.3.3,0,0,1,.1-.24A.32.32,0,0,1,69.4,95h1.26a.29.29,0,0,1,.22.12l.34.29a2.18,2.18,0,0,0,.61.36,2.09,2.09,0,0,0,.76.13,1.87,1.87,0,0,0,1-.24A.74.74,0,0,0,74,95a.76.76,0,0,0-.17-.5,1.63,1.63,0,0,0-.63-.35,11.21,11.21,0,0,0-1.36-.36,4.09,4.09,0,0,1-1.92-.84,1.93,1.93,0,0,1-.62-1.51,2,2,0,0,1,.36-1.15,2.61,2.61,0,0,1,1.1-.89A4.06,4.06,0,0,1,72.47,89a4.4,4.4,0,0,1,1.79.33,3,3,0,0,1,1.15.79,1.36,1.36,0,0,1,.39.81.31.31,0,0,1-.1.24.33.33,0,0,1-.24.1H74.31a.31.31,0,0,1-.26-.12,3.86,3.86,0,0,1-.34-.29,2.62,2.62,0,0,0-.53-.33,1.88,1.88,0,0,0-.71-.12,1.31,1.31,0,0,0-.87.25.77.77,0,0,0-.31.64.69.69,0,0,0,.15.46,1.33,1.33,0,0,0,.59.35,11.55,11.55,0,0,0,1.33.33c1.84.35,2.76,1.16,2.76,2.4a2.08,2.08,0,0,1-.94,1.77,4.47,4.47,0,0,1-2.63.67m-8.92-.15a.38.38,0,0,1-.37-.37V89.57a.39.39,0,0,1,.11-.28.36.36,0,0,1,.26-.11h1.26a.37.37,0,0,1,.27.11.39.39,0,0,1,.11.28v.63a2.6,2.6,0,0,1,2.21-1h.64a.41.41,0,0,1,.27.1.36.36,0,0,1,.1.27v1.12a.35.35,0,0,1-.1.26.37.37,0,0,1-.27.11H66.91a1.43,1.43,0,0,0-1.55,1.55v4.2a.33.33,0,0,1-.11.26.35.35,0,0,1-.26.11Zm-3.94-4.69v0A2.19,2.19,0,0,0,59.24,91a1.65,1.65,0,0,0-2.46,0,2.18,2.18,0,0,0-.44,1.45v0ZM58,97.31a3.75,3.75,0,0,1-2.72-1,3.9,3.9,0,0,1-1.06-2.79l0-.38a4.34,4.34,0,0,1,1-3,4.11,4.11,0,0,1,5.6,0,4.26,4.26,0,0,1,1,3v.32a.36.36,0,0,1-.11.26.37.37,0,0,1-.27.11H56.34v.12a2.39,2.39,0,0,0,.46,1.42,1.46,1.46,0,0,0,1.21.56,1.69,1.69,0,0,0,1.42-.71.85.85,0,0,1,.22-.2.56.56,0,0,1,.26,0h1.35a.35.35,0,0,1,.24.08.27.27,0,0,1,.1.21,1.46,1.46,0,0,1-.44.87,3.58,3.58,0,0,1-1.25.86,4.46,4.46,0,0,1-1.89.37m-9.27-.15a.58.58,0,0,1-.35-.1.71.71,0,0,1-.2-.29l-2.88-7.11a.46.46,0,0,1,0-.14.33.33,0,0,1,.1-.24.34.34,0,0,1,.22-.1H46.9a.41.41,0,0,1,.41.3l2,5.35,2-5.35a.42.42,0,0,1,.4-.3H53a.33.33,0,0,1,.23.1.36.36,0,0,1,.09.24.53.53,0,0,1,0,.14l-2.87,7.11a.57.57,0,0,1-.55.39Zm-6.34,0a.38.38,0,0,1-.37-.37V89.55a.37.37,0,0,1,.11-.27.4.4,0,0,1,.26-.1h1.3a.38.38,0,0,1,.37.37v7.24a.38.38,0,0,1-.37.37Zm-.06-9.28a.33.33,0,0,1-.26-.11.35.35,0,0,1-.11-.26V86.39a.37.37,0,0,1,.11-.27.36.36,0,0,1,.26-.11h1.41a.37.37,0,0,1,.27.11.33.33,0,0,1,.11.27v1.12a.35.35,0,0,1-.11.26.36.36,0,0,1-.27.11ZM33,97.16a.38.38,0,0,1-.37-.37V89.55a.37.37,0,0,1,.11-.27.4.4,0,0,1,.26-.1h1.27a.39.39,0,0,1,.27.1.36.36,0,0,1,.1.27v.63A3.11,3.11,0,0,1,37.2,89a2.87,2.87,0,0,1,2.24.92,3.65,3.65,0,0,1,.83,2.53v4.31a.4.4,0,0,1-.1.26.37.37,0,0,1-.27.11H38.52a.38.38,0,0,1-.37-.37V92.57a2,2,0,0,0-.43-1.38,1.56,1.56,0,0,0-1.25-.5,1.65,1.65,0,0,0-1.26.5,1.93,1.93,0,0,0-.48,1.38v4.22a.35.35,0,0,1-.1.26.34.34,0,0,1-.27.11Zm-6.66.15a4.6,4.6,0,0,1-3.24-1.06A4.12,4.12,0,0,1,22,93.05V86.81a.39.39,0,0,1,.1-.28.37.37,0,0,1,.27-.11h1.41a.37.37,0,0,1,.27.11.36.36,0,0,1,.11.28v6.24a2.53,2.53,0,0,0,.58,1.82,2.45,2.45,0,0,0,3.26,0,2.53,2.53,0,0,0,.58-1.82V86.81a.36.36,0,0,1,.11-.28.37.37,0,0,1,.27-.11h1.41a.37.37,0,0,1,.27.11.39.39,0,0,1,.1.28v6.24a4.15,4.15,0,0,1-1.14,3.2,4.52,4.52,0,0,1-3.21,1.06" fill="#0068a3"/><rect x="-230.76" y="-126.49" width="595.28" height="841.89" fill="none"/><rect x="-230.76" y="-126.49" width="595.28" height="841.89" fill="none"/></svg>