<svg width="902" height="162" viewBox="0 0 902 162" fill="none" xmlns="http://www.w3.org/2000/svg">
<path d="M461.785 41.3909C461.785 51.4042 471.253 56.9668 493.054 67.2036C515.078 77.4396 529.612 89.9025 529.612 114.603C529.612 142.639 509.351 162 479.182 162C458.261 162 442.186 154.881 432.716 146.869L434.477 110.373H436.679C447.029 123.726 459.803 134.852 477.64 134.852C489.752 134.852 498.341 127.73 498.341 115.27C498.341 101.251 488.211 96.1321 471.033 88.121C447.469 77.2181 433.817 63.8659 433.817 42.7251C433.817 15.8005 455.839 0 480.062 0C499.882 0 511.775 5.78607 518.381 11.7945L519.481 44.9511H516.618C506.048 33.38 494.156 25.8138 480.724 25.8138C469.493 25.8138 461.785 30.7093 461.785 41.3909Z" fill="#C5003E"/>
<path d="M87.438 0.0308239C87.7735 8.46002 86.9064 17.7997 84.7756 28.5021C80.0159 28.5594 75.5125 29.069 71.2952 29.9982C74.4188 18.6704 76.0114 9.00825 76.177 0.43924C79.2185 0.154119 82.3079 0 85.4438 0C85.9136 0 86.3712 0.00950705 86.8287 0.0190091L87.438 0.0308239Z" fill="#C5003E"/>
<path d="M59.078 15.7056C58.6934 22.303 56.666 29.5609 53.5764 37.2944C57.032 35.0443 60.8515 33.1882 65 31.7648C68.5101 19.8206 70.3338 9.82817 70.5942 1.14355C66.6429 1.75123 62.7896 2.58897 59.0551 3.66341C59.6107 8.49837 59.1455 14.858 59.078 15.7056Z" fill="#C5003E"/>
<path d="M108.641 32.5852C116.39 35.4012 124.546 39.8112 133.451 46.2865H137.635L135.213 14.0205C127.632 9.12278 119.627 5.28965 110.214 2.87769C110.413 12.8415 109.872 22.671 108.641 32.5852Z" fill="#C5003E"/>
<path d="M33.4386 24.4326C34.8233 20.6203 35.7569 17.0943 36.2526 13.9448C14.2191 28.1029 0 52.0244 0 80.9997C0 81.1434 0.00469347 81.2851 0.0093851 81.4267C0.0134477 81.5494 0.0175089 81.6721 0.0185201 81.7956C2.36295 78.1056 4.67687 74.5028 6.85462 71.1208L6.88099 71.0798C17.9244 53.9108 28.354 37.6961 33.4386 24.4326Z" fill="#C5003E"/>
<path d="M25.6203 141.101C28.8788 130.33 33.5785 119.503 38.2521 109.58C41.3668 115.094 45.4946 119.853 50.5876 123.639C46.5394 134.416 43.7232 143.903 42.0008 152.498C36.0144 149.381 30.5249 145.552 25.6203 141.101Z" fill="#C5003E"/>
<path d="M33.3997 65.0896C35.4292 57.8691 38.8838 51.4148 43.5803 46.0019C49.1353 34.6269 53.0103 24.1831 53.5255 15.3168C53.6749 13.4002 53.8905 8.91318 53.6312 5.42017C49.6581 6.84357 45.8387 8.53009 42.1934 10.4675C41.9995 15.0515 40.8055 20.4754 38.6474 26.4189C33.3321 40.2841 22.7375 56.7528 11.5209 74.1881C8.08266 79.5302 4.32199 85.383 0.60817 91.346C1.51674 99.2598 3.43956 106.725 6.29167 113.611C12.07 102.036 18.9104 90.1913 25.6234 78.6094L25.6396 78.5811C28.2814 74.0232 30.8926 69.518 33.3997 65.0896Z" fill="#C5003E"/>
<path d="M31.2708 81.0004C31.2708 88.9853 32.6064 96.427 35.1764 103.063L34.7514 103.949C29.8894 114.104 24.8334 125.358 21.1588 136.722C16.5244 131.768 12.5491 126.185 9.33318 120.067C15.4001 107.401 23.0075 94.2548 30.4471 81.4158L31.2947 79.9546C31.2925 80.0991 31.288 80.2429 31.2835 80.3867C31.2772 80.59 31.2708 80.7948 31.2708 81.0004Z" fill="#C5003E"/>
<path d="M72.0112 96.5767H115.174V123.947C105.043 130.846 96.2341 133.516 83.4634 133.516C81.9325 133.516 80.4444 133.454 78.9767 133.362C76.0638 142.275 73.3709 151.809 71.742 161.404C75.14 161.782 78.6034 162 82.1416 162C106.145 162 124.643 153.767 146.444 136.854V69.8733H72.0112V96.5767Z" fill="#C5003E"/>
<path d="M47.1945 154.955C48.761 146.626 51.4595 137.346 55.388 126.749C60.5823 129.677 66.5697 131.734 73.3099 132.759C70.4535 141.613 67.8389 151.062 66.2277 160.621C59.5212 159.447 53.1503 157.534 47.1945 154.955Z" fill="#C5003E"/>
<path d="M90.4191 28.6609C94.6312 28.9581 98.887 29.666 103.25 30.867C104.41 21.1234 104.865 11.4579 104.606 1.65264C100.97 0.978912 97.1244 0.496742 93.0139 0.23584C93.3102 8.74434 92.4692 18.0785 90.4191 28.6609Z" fill="#C5003E"/>
<path fill-rule="evenodd" clip-rule="evenodd" d="M153.929 158.884L222.196 3.11523H231.448L299.713 158.884H269.324L257.872 132.182H195.77L184.32 158.884H153.929ZM226.821 58.302L206.782 105.478H246.862L226.821 58.302Z" fill="#C5003E"/>
<path d="M347.938 92.1253H412.24V65.4234H347.938V29.8185H414.664V3.11523H316.667V158.884H415.544V132.181H347.938V92.1253Z" fill="#C5003E"/>
<path d="M645.845 51.461C647.791 51.461 649.07 52.6147 649.07 54.6208V65.8136H651.751V54.2604C651.751 51.1656 650.142 49.0916 646.784 49.0916C644.805 49.0916 642.691 50.1773 641.684 51.758C640.844 49.9129 639.338 49.0916 637.423 49.0916C635.441 49.0916 633.664 50.0459 632.658 51.5615V49.5525H629.971V65.8136H632.658V56.2339C632.658 53.2721 634.167 51.461 636.351 51.461C638.059 51.461 639.604 52.4833 639.604 54.6548V65.8136H642.29V55.4111C642.29 53.0431 643.9 51.461 645.845 51.461Z" fill="#C5003E"/>
<path d="M588.09 51.461C590.474 51.461 592.082 52.9101 592.082 55.3446V65.8136H594.77V54.7862C594.77 51.2645 592.356 49.0916 588.927 49.0916C586.548 49.0916 584.366 50.3087 583.19 51.9898V49.5524H580.506V65.8136H583.19V56.7612C583.19 53.7314 585.337 51.461 588.09 51.461Z" fill="#C5003E"/>
<path d="M568.639 63.9051C566.255 63.9051 564.645 62.4544 564.645 60.02V49.5525H561.96V60.5799C561.96 64.1015 564.374 66.273 567.8 66.273C570.181 66.273 572.362 65.0558 573.537 63.3762V65.8136H576.224V49.5525H573.537V58.6048C573.537 61.6331 571.391 63.9051 568.639 63.9051Z" fill="#C5003E"/>
<path fill-rule="evenodd" clip-rule="evenodd" d="M597.978 57.6815C597.978 52.9426 601.702 49.0916 606.638 49.0916C609.255 49.0916 611.3 50.3087 612.442 51.5939V49.5524H615.128V65.8136H612.442V63.772C611.3 65.0557 609.255 66.273 606.638 66.273C601.702 66.273 597.978 62.4234 597.978 57.6815ZM612.609 57.6815C612.609 54.2913 610.328 51.461 606.638 51.461C602.945 51.461 600.663 54.2913 600.663 57.6815C600.663 61.0717 602.945 63.905 606.638 63.905C610.328 63.905 612.609 61.0717 612.609 57.6815Z" fill="#C5003E"/>
<path fill-rule="evenodd" clip-rule="evenodd" d="M654.956 57.6815C654.956 52.9426 658.68 49.0916 663.616 49.0916C666.234 49.0916 668.279 50.3087 669.42 51.5939V49.5524H672.106V65.8136H669.42V63.772C668.279 65.0557 666.234 66.273 663.616 66.273C658.68 66.273 654.956 62.4234 654.956 57.6815ZM669.587 57.6815C669.587 54.2913 667.306 51.461 663.616 51.461C659.923 51.461 657.642 54.2913 657.642 57.6815C657.642 61.0717 659.923 63.905 663.616 63.905C667.306 63.905 669.587 61.0717 669.587 57.6815Z" fill="#C5003E"/>
<path d="M683.401 51.461C684.509 51.461 685.416 51.7564 686.221 52.5142H686.522L686.355 49.8479C685.649 49.3545 684.746 49.0916 683.803 49.0916C682.094 49.0916 680.213 50.0133 679.071 51.9218V49.5524H676.386V65.8136H679.071V56.5322C679.071 52.8096 681.388 51.461 683.401 51.461Z" fill="#C5003E"/>
<path d="M700.943 64.8253C699.838 65.7146 698.226 66.273 696.212 66.273C691.517 66.273 687.556 63.0157 687.556 57.6815C687.556 52.3502 691.651 49.0916 696.212 49.0916C698.226 49.0916 699.907 49.6839 701.013 50.5377L701.111 53.1731H700.809C699.368 51.9544 698.094 51.461 696.212 51.461C692.657 51.461 690.24 54.0949 690.24 57.6815C690.24 61.2711 692.42 63.905 696.212 63.905C698.059 63.905 699.299 63.4116 700.745 62.1929H701.045L700.943 64.8253Z" fill="#C5003E"/>
<path fill-rule="evenodd" clip-rule="evenodd" d="M712.111 49.0916C707.175 49.0916 703.45 52.9426 703.45 57.6815C703.45 62.4234 707.175 66.273 712.111 66.273C714.727 66.273 716.772 65.0557 717.914 63.772V65.8136H720.6V49.5524H717.914V51.5939C716.772 50.3087 714.727 49.0916 712.111 49.0916ZM712.111 51.461C715.8 51.461 718.081 54.2913 718.081 57.6815C718.081 61.0717 715.8 63.905 712.111 63.905C708.419 63.905 706.137 61.0717 706.137 57.6815C706.137 54.2913 708.419 51.461 712.111 51.461Z" fill="#C5003E"/>
<path d="M798.754 98.3194H805.675V110.543H798.754V141.835H786.052V110.543H781.934V98.3194H786.052C786.052 86.9924 794.215 79.2507 805.675 79.2507V91.7993C801.637 91.7993 798.754 94.3259 798.754 98.3194Z" fill="#C5003E"/>
<path d="M776.655 141.834H763.96V98.3179H776.655V141.834Z" fill="#C5003E"/>
<path d="M770.387 79.46C766.516 79.46 763.132 82.8079 763.132 86.6322C763.132 90.4566 766.516 93.8045 770.387 93.8045C774.258 93.8045 777.642 90.4566 777.642 86.6322C777.642 82.8079 774.258 79.46 770.387 79.46Z" fill="#C5003E"/>
<path d="M742.856 141.834H755.55V79.9016H742.856V141.834Z" fill="#C5003E"/>
<path d="M635.367 97.6672C623.579 97.6672 615.17 105.979 615.17 117.796V141.835H627.866V117.796C627.866 113.15 630.997 109.892 635.449 109.892C639.901 109.892 643.035 113.15 643.035 117.796V141.835H655.73V117.796C655.73 113.15 658.861 109.892 663.314 109.892C667.683 109.892 670.816 113.15 670.816 117.796V141.835H683.511V117.796C683.511 105.979 675.102 97.6672 663.314 97.6672C658.037 97.6672 652.265 100.765 649.381 105.164C646.496 100.765 640.725 97.6672 635.367 97.6672Z" fill="#C5003E"/>
<path fill-rule="evenodd" clip-rule="evenodd" d="M714.908 142.487C726.037 142.487 736.262 132.545 736.262 120.077C736.262 107.609 726.037 97.6672 714.908 97.6672C710.457 97.6672 706.17 99.2969 702.706 101.987L701.965 98.3201H690.918V160.251H703.614V138.82C706.912 141.101 710.786 142.487 714.908 142.487ZM713.259 110.217C718.865 110.217 723.317 114.616 723.317 120.077C723.317 125.538 718.865 129.937 713.259 129.937C707.736 129.937 703.285 125.538 703.285 120.077C703.285 114.616 707.736 110.217 713.259 110.217Z" fill="#C5003E"/>
<path fill-rule="evenodd" clip-rule="evenodd" d="M831.137 97.6672C818.355 97.6672 808.137 107.609 808.137 120.077C808.137 132.545 818.355 142.487 831.137 142.487C843.918 142.487 854.136 132.545 854.136 120.077C854.136 107.609 843.918 97.6672 831.137 97.6672ZM831.137 110.217C836.663 110.217 841.115 114.616 841.115 120.077C841.115 125.538 836.663 129.937 831.137 129.937C825.53 129.937 821.078 125.538 821.078 120.077C821.078 114.616 825.53 110.217 831.137 110.217Z" fill="#C5003E"/>
<path d="M590.116 111.499L590.01 111.737L590.237 111.87C591.354 112.531 592.311 113.392 593.079 114.429L593.403 114.865L593.601 114.358C595.558 109.317 596.331 105.353 596.031 101.891L596.02 101.761L595.914 101.681C595.008 100.995 594.044 100.375 593.051 99.8399L592.541 99.5662L592.611 100.136C592.991 103.213 592.198 106.823 590.116 111.499Z" fill="#C5003E"/>
<path d="M594.58 117.044C597.243 110.663 599.044 104.28 597.303 98.3196H608.253V141.835H598.029L596.3 137.597C593.19 140.181 589.473 141.917 585.465 142.364C585.602 138.153 587.153 133.699 589.157 129.078C592.64 127.543 595.062 124.101 595.062 120.076C595.062 119.016 594.891 118 594.58 117.044Z" fill="#C5003E"/>
<path d="M587.34 100.062C587.517 102.71 586.583 105.902 584.397 110.111L584.156 110.573L584.84 110.53C585.92 110.457 587.046 110.61 588.102 110.929L588.357 111.005L588.463 110.764C590.754 105.616 591.39 101.807 590.467 98.7808L590.424 98.6384L590.283 98.589C589.354 98.2477 588.41 97.9761 587.478 97.7829L587.043 97.6921L587.123 98.125C587.261 98.8621 587.307 99.5571 587.34 100.062Z" fill="#C5003E"/>
<path d="M579.571 97.8052L579.806 97.7559C580.826 101.072 579.126 104.935 578.702 105.816C577.099 109.063 574.39 112.83 571.576 116.742L571.554 116.773C568.867 120.506 566.089 124.366 563.981 128.173L563.667 128.739L563.437 128.133C562.743 126.293 562.289 124.376 562.09 122.44L562.078 122.325L562.146 122.234C563.713 120.132 565.367 118.061 566.969 116.054L567.075 115.921C570.658 111.437 573.917 107.347 575.554 103.911C576.397 102.041 576.751 100.413 576.598 99.1894L576.537 98.7072L576.766 98.6215C577.7 98.2787 578.644 98.0028 579.571 97.8052Z" fill="#C5003E"/>
<path d="M574.816 99.4492L574.442 99.6395C567.325 103.281 562.57 110.522 562.029 118.535L561.966 119.507L562.565 118.735C563.597 117.41 564.642 116.1 565.667 114.817C569.975 109.424 574.423 103.855 574.845 100.411C574.852 100.345 574.895 99.9242 574.816 99.4492Z" fill="#C5003E"/>
<path d="M583.548 142.489L583.461 142.49C581.49 142.49 579.544 142.18 577.68 141.599C577.547 138.182 578.611 134.185 581.029 129.027L581.152 128.766L581.418 128.877C582.634 129.385 583.931 129.643 585.27 129.643C585.613 129.643 585.977 129.62 586.376 129.575L586.875 129.52L586.688 129.98C584.639 134.995 583.642 138.972 583.548 142.489Z" fill="#C5003E"/>
<path d="M575.853 140.725C575.917 137.204 577.075 133.188 579.492 128.083L579.596 127.865L579.401 127.721C578.158 126.805 577.148 125.592 576.478 124.217L576.237 123.717L575.952 124.197C573.519 128.292 570.935 133.078 570.225 137.503C571.933 138.928 573.832 140.091 575.851 140.934L575.853 140.725Z" fill="#C5003E"/>
<path d="M575.538 121.389C572.699 126.031 569.912 130.98 568.765 135.712L568.672 136.09C567.102 134.514 565.744 132.699 564.667 130.694L564.693 130.64C566.755 126.517 569.929 122.101 573.001 117.828L573.029 117.79L573.036 117.78C577.458 111.636 581.633 105.835 581.956 101.375C581.956 101.375 582.193 98.9426 581.812 97.8278L581.698 97.4727L582.073 97.4429C583.13 97.3579 583.907 97.3667 584.745 97.4248L585.087 97.4473C585.087 97.4473 585.763 99.2469 585.52 101.582C585.293 103.998 584.123 106.994 581.85 111.042L581.798 111.136L581.695 111.173C577.937 112.608 575.506 116.103 575.506 120.078C575.506 120.425 575.531 120.791 575.58 121.202L575.591 121.304L575.538 121.389Z" fill="#C5003E"/>
<path d="M859.902 117.796C859.902 105.979 868.559 97.6672 880.593 97.6672C892.547 97.6672 901.123 105.979 901.203 117.796V141.835H888.509V117.796C888.509 113.151 885.212 109.892 880.593 109.892C875.894 109.892 872.597 113.151 872.597 117.796V141.835H859.902V117.796Z" fill="#C5003E"/>
</svg>
